<svg version="1.2" xmlns="http://www.w3.org/2000/svg" viewBox="0 0 1000 600" width="1000" height="600">
	<title>Novo Projeto</title>
	<style>
		.s0 { fill: #c9f908 } 
		.s1 { fill: #ff0000 } 
		.s2 { fill: #7cfbf4 } 
		.s3 { fill: #000000 } 
		.s4 { fill: #fff3a3 } 
		.s5 { fill: #ffffff } 
	</style>
	<g id="Background">
		<path id="Path 0" class="s0" d="m0 0h66v9c0 5-0.4 9.2-1 9.5-0.5 0.3-1 3-1 6 0 3-0.5 5.7-1 6-0.5 0.3-0.7 1.3-0.4 2.3 0.3 0.9-0.2 3.3-1.2 5.2-1 1.9-1.7 4.1-1.6 4.8 0.1 0.6-0.3 1.4-0.8 1.7-0.5 0.3-1 1.3-1 2.3 0 0.9-1.5 3.6-3.5 6-1.9 2.3-3.5 4.8-3.5 5.5 0.1 0.6-0.8 2.3-1.8 3.7-1 1.4-3.4 5.2-5.2 8.5-1.9 3.3-7.3 9.9-12 14.6-5.1 5.2-10.7 9.7-14 11.4-3 1.6-7.6 3.9-10.3 5.2-2.6 1.3-4.9 2.8-5.2 3.3-0.3 0.5-0.9 1-1.5 1-0.7 0-1-18.3-1-53z"/>
		<path id="Path 1" class="s1" d="m719.5 0l3 3c1.6 1.7 5.5 4.6 8.5 6.4 3 1.8 7.1 3.8 9 4.5 1.9 0.7 4.7 2.1 6.3 3.2 1.5 1 3.2 1.9 3.7 1.9 0.5 0 2.2 0.9 3.8 2 1.5 1.2 3.5 2.1 4.5 2 0.9 0 1.9 0.4 2.2 1 0.3 0.6 2.4 1 9 1.2l-3.5 1c-1.9 0.5-4.2 1.3-5 1.8-0.8 0.4-6.6 1.2-12.8 1.6-7.1 0.6-11.8 1.4-12.5 2.2-0.7 0.7-2.4 1.3-3.9 1.2-1.6 0-2.8 0.5-2.8 1 0 0.5-1.6 1.7-3.5 2.5q-3.5 1.5-3.5 3.5c0 1.4 2.4 3.7 7.5 7.2 4.1 2.9 7.8 6.2 8.1 7.3 0.3 1.1 1.6 3 2.8 4.3 1.1 1.2 3.1 2.2 4.4 2.2 1.2 0 2.2 0.3 2.2 0.7-0.1 0.5 3.9 2.8 8.7 5.2 6.2 3.1 10.2 6 13.4 9.5 2.5 2.8 6.7 7.8 9.4 11.1 2.6 3.3 5.1 6.5 5.6 7 0.5 0.7-5.3 0.9-16.9 0.7-12.3-0.2-19.7-0.8-24.2-1.9-3.6-0.9-7.2-2.2-8-2.9-0.8-0.8-3.4-1.4-5.8-1.4-3.7 0-4.2 0.3-4.2 2.2-0.1 1.3 0.6 3 1.5 3.8 0.9 0.8 1.6 2 1.5 2.5 0 0.5 1.1 2.1 2.5 3.5 1.4 1.4 2.6 3 2.6 3.5 0 0.5 1.6 3.5 3.6 6.5 2 3 5 6.9 6.7 8.5 1.7 1.7 4.3 4.6 5.9 6.5 2.7 3.4 2.7 3.7 2.4 15.5-0.2 8.9-0.9 14.1-2.7 20-1.3 4.4-3.1 9.2-4.2 10.8-1 1.5-2.2 5.3-2.8 8.4-0.5 3.2-1 5.9-1 6 0 0.2-0.3 0.3-0.8 0.3-0.4 0-1.2-3.2-1.9-7.2-0.7-4-2.5-10.2-4-13.8-1.5-3.6-3.9-8.1-5.3-10-1.3-1.9-3.7-6-5.2-9-1.5-3-2.9-6.6-3-8-0.2-1.6-1-2.6-2.3-2.8-1.8-0.3-2 0.5-2.6 9-0.4 5.6-1.3 10.5-2.2 12.3-0.9 1.7-2.2 7.3-2.7 12.5-0.6 5.2-1.6 11.1-2.2 13-0.6 1.9-0.8 4.8-0.4 6.5 0.3 1.8-0.2 5.6-1.3 9.5-1.1 3.6-2.3 9.7-2.7 13.5-0.3 3.8-1.3 7.9-2 9-0.8 1.1-1.4 2.8-1.4 3.7 0 1-2.5 4.4-5.5 7.5-3 3.2-5.5 6.4-5.5 7 0 0.7-1.8 3.4-4 6-2.3 2.7-4.1 5.1-4 5.5 0 0.5-1.5 2.4-3.3 4.3-1.7 1.9-4.6 4-6.2 4.7-1.6 0.6-5.4 2.7-8.3 4.5-2.8 1.8-5.4 3.3-5.7 3.3-0.3 0-1.9 1-6.9 4.5l0.7-2.5c0.4-1.4 1-4.5 1.4-7 0.3-2.5 2.1-7.6 4-11.5 1.8-3.8 3.3-7.4 3.3-8 0-0.6 1.1-3.3 2.5-6 1.4-2.8 2.5-5.6 2.5-6.3 0-0.6 0.9-3.1 2.1-5.5 1.1-2.3 2.6-5.5 3.2-7.2 0.6-1.7 1.4-8.2 2-14.5 0.5-6.3 0.9-15.9 1-21.2 0.1-6.7-0.2-10.1-1.1-11-0.7-0.7-1.2-2.2-1.2-3.3 0-1.6-0.2-1.7-1-0.5-0.7 1.2-1 0.9-1.5-1.5-0.3-1.7-1.7-5.3-3-8-1.4-2.8-2.7-6.3-3.1-8-0.3-1.7-1.1-4.3-1.7-6-0.6-1.7-4.5-7.8-8.7-13.8-4.1-5.9-8.6-12.3-10-14.3-1.7-2.4-3.3-3.4-5-3.4-1.4 0-3.7-0.5-5.2-1.2-1.6-0.7-2.8-1.6-2.8-2.1 0-0.4 1.1-2 2.5-3.7 1.4-1.7 2.3-3.5 2-4-0.3-0.5-1.6-1-3-1q-2.5 0-4.1 2.7c-0.9 1.6-2.5 4-3.5 5.5-1.4 2.1-1.7 3.8-1.3 6.5 0.4 2.6-0.1 5.7-1.6 9.8-2.1 5.6-2.2 7.6-2.2 33.5 0 16.2-0.3 25.5-0.7 22.5-0.5-2.8-1.8-8-2.9-11.8-1.2-3.7-2.2-7.7-2.2-9 0-1.2-0.9-4.5-2-7.2-1.2-2.8-2.8-6.3-3.7-8-1-1.7-1.8-5.8-1.9-9.5-0.1-4.1-1.2-9.1-2.8-13.5-1.5-3.8-2.7-9-2.7-11.5-0.1-2.5-0.1-9.9-0.1-16.5 0-6.6-0.1-12.3-0.4-12.8-0.2-0.4-1.3-0.7-2.4-0.7-1.9 0-2 0.7-2 19.5l-8.2 0.7c-4.6 0.5-10.1 0.8-16.3 0.9l3-2.2c1.6-1.3 4.7-2.5 6.9-2.8 2.1-0.3 4.2-1.2 4.7-1.9 0.5-0.6 0.7-1.7 0.4-2.2-0.3-0.6-6.1-1-14.3-1-10.6 0-15 0.4-19.7 1.8-3.3 1.1-7 2.4-8.3 3.1-1.4 0.7-2.1 1.9-1.9 3.3 0.1 1.4 0.8 2.2 1.7 2.1 0.8-0.1 4.6-1.3 8.5-2.7 4.1-1.5 8.9-2.6 11.5-2.5 4.4 0.1 4.5 0.1 1.5 1.1-1.6 0.6-6 3-9.8 5.4-3.7 2.4-6.9 4.4-7.2 4.4-0.3 0-2.2 1.3-4.2 2.8-2.1 1.6-6 4-8.7 5.3-3.4 1.7-5.9 3.9-8.2 7.4-1.9 2.7-3.4 5.7-3.4 6.5 0 0.8-1.1 2.1-2.5 2.7-2.3 1.2-2.5 1.2-1.9-1 0.3-1.2 2.2-5.6 4.1-9.7 2-4.1 5.8-10.9 8.4-15 2.6-4.1 6.7-9.8 9.1-12.6 2.4-2.9 5.4-5.5 6.8-5.8 1.4-0.4 4.8-2.4 7.5-4.4 2.7-2.1 6.1-4.2 7.5-4.7 1.4-0.4 4.3-1.7 6.5-2.7 2.2-1.1 7.1-2.6 11-3.3 3.9-0.7 7.9-1.6 9-2 1.5-0.6 1.2 0.1-1.2 2.6-1.8 1.9-4.9 3.9-7 4.6-2.1 0.6-5.5 1.9-7.6 2.7-3.3 1.4-3.7 2-3.7 5.1 0 1.9 0.6 3.8 1.2 4.2 0.8 0.3 2.2-0.5 3.3-2 1.1-1.4 4.4-3.5 7.3-4.6 2.8-1.2 7.5-4 10.2-6.4 2.8-2.3 4.8-4.8 4.5-5.5-0.4-0.8 0.7-1.2 3.8-1.2 2.6 0.1 4.8-0.5 5.7-1.5q1.5-1.6 0.5-2.6c-0.6-0.6-5-0.8-10.5-0.6-5.2 0.3-12.6 1.1-16.5 1.9-3.9 0.8-10.1 2.8-14 4.4-3.9 1.6-9.3 4.6-12 6.7-2.7 2-6.1 4-7.5 4.3-1.4 0.4-5.1 3.4-8.3 6.8-3.1 3.3-5.7 6.4-5.7 6.8 0 0.5-1.6 3.2-7 11.3l-0.7-3.4c-0.5-2.3-3.1-5.8-7.3-10.2-3.6-3.8-7.3-6.8-8.2-6.9-1 0-4.4-1.4-7.5-3-3.2-1.7-7.4-4.2-9.3-5.6-3.3-2.3-4.2-2.5-16.8-2.4-13.1 0-13.2 0-12.9 2.2 0.2 2.2 0.6 2.3 12.9 2.8 11.2 0.4 13 0.8 15.5 2.7 1.5 1.3 5.4 3.6 8.6 5.3 3.1 1.6 6.4 3 7.2 3 0.8 0 3.9 2.6 6.9 5.7 4.1 4.4 5.7 7 6.7 10.8 1.1 4.8 1 5.3-5.1 18.5l-4.7-2.4c-2.7-1.3-5.5-3.1-6.3-4-0.8-0.9-1.9-1.7-2.5-1.7-0.6 0-3.2-1.4-6-3.1-2.7-1.7-6.4-3.5-8-3.9-2.5-0.6-2.2-0.7 2.3-0.8 3.5-0.1 6.6 0.6 9.7 2.1 3.3 1.7 5 2 6.2 1.3 0.9-0.6 1.8-1.6 1.9-2.3 0.2-0.7-2-2.3-5.3-3.7-4.9-2.1-7.3-2.5-15-2.5-7.6 0-9.3 0.3-9.3 1.5 0 1.2-1.3 1.5-11 1.5l-0.2-5.8c-0.3-5.1-0.5-5.7-4.8-6.2v16.2c0 9 0.7 22.1 1.5 29.3 0.9 7.2 2.4 15.7 3.5 19 1.1 3.3 3 8.5 4.3 11.5 1.3 3 3 6.8 3.9 8.5 0.9 1.7 3.6 4.9 6.2 7.2 2.5 2.4 4.3 4.6 4 5-0.3 0.5-3.3 0.3-6.7-0.4-3.4-0.6-7.6-1.5-9.2-1.8-1.6-0.4-3.4-1.3-4-2.1-0.6-0.7-2.5-2.1-4.2-3.1-1.8-1-5.6-3.5-8.5-5.6-2.9-2.1-6.4-5.5-7.8-7.4-1.4-2-5-6.1-8.1-9.2-3.1-3.1-7.5-8.3-9.8-11.6-2.3-3.3-4.1-6.9-4.1-8 0-1.1-0.8-3.2-2-4.8-1.1-1.5-2-3.7-2-5 0-1.2-0.7-3.3-1.7-4.7-0.9-1.4-2.1-4.1-2.6-6-0.4-1.9-1.1-4.6-1.3-6-0.4-1.6 0.1-3.1 1.3-4.2 1.1-1.1 1.5-2.4 1.1-3.3-0.5-0.8-1.7-1.5-2.8-1.5-1.1 0-1.8-0.5-1.5-1 0.3-0.6-0.2-2.1-1-3.5-0.8-1.4-2.4-2.5-3.5-2.5-1.5 0-1.9 0.6-1.7 2.5 0.1 1.3-0.1 2.5-0.5 2.5-0.5 0-2.2-0.9-3.8-2-2.8-1.9-3-2.5-3.2-8.8-0.3-6.1-0.5-6.7-2.5-7-2.2-0.2-2.3 0.1-2.3 6.5 0 5.5-0.2 6.6-1.2 5.5-0.7-0.7-2.1-1.2-3-1.2-1.1 0-1.8 0.8-1.8 2 0 1.1 1.3 3 2.9 4.2 1.7 1.4 3.9 4.9 5.5 9 1.4 3.8 2.6 7.2 2.6 7.8 0 0.5 1.5 4 3.4 7.7 1.9 3.8 4.6 8.4 6.1 10.3 2.1 2.8 2.3 3.5 1 3.7-0.9 0.2-1.4 1.1-1.2 2.5 0.1 1.4 1.3 2.5 3.6 3.2 2.4 0.8 3.9 2.3 5.7 5.6 1.3 2.5 2.9 5.6 3.6 7 0.7 1.4 2.5 4 4 5.7 1.5 1.8 2.8 3.9 2.8 4.5-0.1 0.7 0.7 2 1.6 2.8 0.9 0.8 3.5 4.1 5.8 7.4 2.3 3.2 5.6 8.1 10.6 15.6h-2.7c-1.6 0-6.6-0.7-11.3-1.6-6.9-1.3-9.1-2.2-11.5-4.6-1.6-1.7-5-3.9-7.5-4.9-2.5-1.1-4.8-1.9-5.2-1.9-0.5 0-2.2-1.3-3.8-3-1.6-1.7-3.8-3-4.7-3-1 0-2.4-0.9-3-2-0.7-1.1-1.7-2-2.3-2-0.6 0-1.8-0.8-2.8-1.8-1-0.9-5-4.6-8.8-8.1-3.8-3.5-7.5-7.3-8.1-8.3-0.9-1.2-1-2.3-0.3-3.3 0.6-0.8 0.8-1.9 0.5-2.5-0.3-0.6-1.3-1-2.2-1-1 0-2.8-1.5-4-3.3-1.3-1.7-2.3-3.9-2.2-4.7 0-0.8-0.9-2.7-2.1-4.3-1.1-1.5-2-3.1-2-3.7 0-0.6-0.4-1.8-1-2.8-0.5-0.9-1.4-4.4-1.9-7.7-0.6-3.3-1.4-7.8-1.8-10-0.6-3.1-1.3-4.1-3.1-4.3-1.4-0.1-2.2 0.3-2.2 1.3 0 0.8-0.7 1.5-1.5 1.5-1.3 0-1.5 2.8-1.5 38h-2.5c-2 0-2.4 0.4-2.2 2.2 0.1 1.6 1 2.4 2.7 2.7 1.4 0.1 2.8 0.8 3.2 1.5 0.4 0.6 0.8 2.3 0.8 3.8 0 1.6 1.2 6.1 2.7 10 1.4 4 3.7 9.4 5 12 1.4 2.9 3.9 5.9 6.3 7.5 2.3 1.6 4.1 3 4.1 3.3-0.1 0.3-2.3 0.2-5.1-0.3-2.9-0.4-8.6-2.6-13.7-5.5-4.8-2.6-10.7-6.6-13-9-2.4-2.3-4.9-4.2-5.5-4.2-0.7 0.1-4.7-3.2-8.9-7.2-6.1-5.9-7.7-8.1-8.3-11.3-0.4-2.2-0.7-6.9-0.6-10.5 0-4-0.5-7.8-1.5-9.8-0.9-2-2.2-3.2-3.5-3.2-2 0-2 0.7-2 34.7 0 26.3 0.4 36.1 1.4 40.3 0.8 3 1.7 8.2 2.1 11.5 0.3 3.3 1.3 8 2.1 10.5 0.8 2.5 2.5 8.3 3.8 13 1.3 4.7 3.4 10.5 4.6 13 1.2 2.5 3.3 6.6 4.6 9.2 1.3 2.7 2.4 5.2 2.4 5.8 0 0.6-0.9 1-2 1-1.1 0-5-2.1-8.6-4.8-3.7-2.6-7-5.2-7.3-5.9-0.3-0.6-3.2-3.1-6.3-5.5-4.5-3.4-5.4-4.6-4.5-5.5 0.9-1 0.7-1.7-0.8-3-1.2-1-2.4-3.4-2.7-5.3-0.4-1.9-1.4-4.2-2.3-5-0.9-0.8-1.6-1.9-1.5-2.5 0-0.6-0.9-1.9-2-3-1.6-1.5-2-1.7-2-0.5 0 0.8-0.8 2.7-2 4.2-1.1 1.6-1.6 3-1 3.3 0.6 0.3 1 1.5 1 2.7 0 1.3 1.3 3.9 2.9 5.8 1.6 1.9 3.5 5.5 4.1 8 0.6 2.5 1.8 7.2 2.7 10.5 0.8 3.3 1.9 8.7 2.4 12 0.6 3.3 1.4 6.9 1.9 8 0.5 1.1 1.1 4.7 1.4 8 0.4 3.3 1.5 9.3 2.6 13.2 1.1 4 1.7 7.9 1.4 8.5-0.3 0.7 0.5 5.1 1.9 9.8 1.3 4.7 2.9 10.5 3.5 13 0.6 2.5 0.8 6.5 0.5 9-0.5 3.3-0.2 5.2 1.1 7 0.9 1.4 1.6 3.4 1.6 4.5 0.1 1.1 0.7 2.9 1.5 4 0.9 1.1 1.5 2.7 1.6 3.5 0 0.8 1.8 4.2 4 7.5 2.2 3.3 4 6.3 3.9 6.7 0 0.5 1.8 2.7 4 5 2.3 2.4 4.1 4.6 4 5 0 0.5-0.7 0.8-1.5 0.8-0.8 0-1.5 0.7-1.5 1.5 0 0.8 0.6 1.7 1.3 1.8 0.6 0.2 1.2 1.7 1.2 3.3 0 2.1 0.5 3 2 3.2 1.1 0.2 2.6 0.9 3.3 1.6 0.7 0.6 1.3 2.3 1.2 3.8 0 2.3 0.5 2.8 2.8 3 2.3 0.3 2.7 0.7 2.7 3.5 0 2.3 0.5 3.3 1.5 3.3 0.8 0 2.1 0.5 2.8 1.2 0.7 0.7 1.2 3 1.2 5 0 2.1-0.4 4-1 4.3q-1 0.5 0 2c0.7 1 0.6 2-0.2 3.1-0.7 0.8-1.9 1.3-2.5 1q-1.3-0.6-1.8 3.1c-0.3 2.1 0 5.4 0.5 7.3 0.6 1.9 1 4.4 1 5.5 0 1.8-0.3 1.7-3-1-1.7-1.6-3-3.6-3-4.3 0-0.6-1.1-2.1-2.5-3.2-1.4-1.1-2.5-2.7-2.5-3.5 0-0.8-1.1-2.4-2.5-3.5-1.4-1.1-2.5-2.4-2.5-3 0-0.6-1.6-3.1-7.2-10.5l0.2-38-4.2-3.6c-2.4-1.9-6.3-4.9-8.8-6.5-2.4-1.6-6.4-4.9-8.8-7.4-2.3-2.5-4.8-6.1-5.4-8-0.6-1.9-2.2-5.1-3.5-7-1.3-1.9-2.8-5.1-3.3-7-0.5-1.9-1.6-4.9-2.4-6.5-0.8-1.6-1.8-5.9-2.2-9.5-0.3-3.6-1-6.9-1.4-7.5-0.4-0.6-1-3.3-1.4-6-0.3-2.8-0.7-6.1-1-7.5-0.2-1.4-0.9-3.7-1.5-5.3-0.6-1.5-1.1-4.1-1.1-5.7 0-1.8-0.6-3.2-1.5-3.5-0.8-0.3-1.5-1.4-1.5-2.5 0-1.1-0.4-2.2-1-2.5-0.6-0.3-1-4.8-1-10.3 0-5.3 0.5-12.4 1.2-15.7 0.6-3.3 1.7-6.9 2.5-8 0.7-1.1 1.3-3.5 1.3-5.3 0-2.4-0.4-3.1-1.5-2.7-1.2 0.4-1.5-0.5-1.5-4.8 0-4.5-0.4-5.6-3-8.2-1.7-1.7-3-3.6-3-4.3 0-0.6-0.6-1.5-1.2-2-0.7-0.4-2.8-3-4.7-5.7-2.1-3-3.4-6-3.2-7.5 0.1-1.4-0.5-3.2-1.4-4-1.2-1.1-1.5-3.2-1.4-8.5 0.1-3.8 0.5-9.9 0.9-13.5 0.4-3.6 0.8-5.9 0.8-5.3 0.1 0.7 1.6 4.2 3.2 7.8 1.6 3.6 3 6.8 3 7.2 0 0.5 0.9 1.9 2 3.3 1.1 1.4 2 3.5 2 4.7 0 1.3 1.1 4 2.5 6 1.4 2.2 2.7 5.9 3 8.5 0.5 4.6 0.6 4.8 3.3 4.2 2.2-0.5 3.1-0.1 4.9 2.2 1.4 1.8 2.2 2.3 2.2 1.4 0.1-0.8-1.2-3.3-2.7-5.4-1.6-2.4-3-6-3.3-9-0.5-3.7-2-7-5.3-12.1-2.5-3.8-4.6-7.4-4.6-8 0-0.6-1.1-3.3-2.5-6-1.3-2.8-2.4-5.9-2.4-7 0-1.1-1-3.3-2.3-5-1.4-1.9-2.2-4.2-2-6.3 0.1-2.1-0.6-4.3-2.2-6.5-1.3-1.7-2.7-5.2-3-7.7-0.4-2.5-0.8-7.4-0.9-11-0.2-5.9-0.4-6.5-2.4-6.8-1.7-0.1-2.4 0.4-2.8 2-0.2 1.3-0.3 4.8-0.1 7.8 0.1 3 0.6 7.3 1 9.5 0.4 2.2 1 4.7 1.3 5.5 0.3 0.8 0.5 2.5 0.4 3.7 0 1.3 0.6 3.4 1.4 4.8 0.8 1.4 1.1 2.5 0.5 2.5-0.6 0-1 1.2-1 2.7-0.1 1.7-1.4 4.5-3.4 6.8-1.8 2.2-4.9 6.5-6.8 9.5-1.9 3-5 7-6.7 8.8-1.8 1.7-3.6 3.2-3.9 3.2-0.4 0-2.7 1.9-5.2 4.2-2.5 2.4-5.8 5-7.3 5.8-1.5 0.8-2.9 1.3-3.1 1-0.3-0.3 1.8-5.2 4.6-11 3-6.3 5.6-13.3 6.4-17.5 0.7-3.8 2-9.3 2.9-12 0.9-2.8 2-5.9 2.5-7 0.5-1.1 0.9-7.2 0.8-13.5-0.1-6.3 0.1-12.1 0.5-12.8 0.4-0.6 0.5-1.9 0.2-2.7-0.3-0.8-1.4-1.5-2.5-1.5-1.1 0-2 0.4-2 1 0 0.6-2.2 1.2-5 1.5-2.7 0.3-5.3 1.1-5.7 1.8-0.5 0.7-2.1 2.3-3.8 3.5-1.6 1.3-3.3 2.3-3.7 2.2-0.5 0 0.4-2.6 1.8-5.8 1.4-3.1 3.8-7.5 5.3-9.7 1.5-2.2 4.1-6.9 5.8-10.5 1.6-3.6 3.6-8.1 4.3-10 0.7-1.9 1.7-4 2.2-4.5 0.4-0.6 0.8-1.9 0.8-3 0-1.1 0.5-2.5 1.1-3 0.6-0.6 0.8-1.6 0.5-2.3-0.4-0.9-5.3-1.2-38.1-1.2l3.2-3.2c1.8-1.8 4.7-5.4 6.5-8 1.8-2.6 5.8-7.6 8.8-11.2 4.2-5.1 6.4-6.9 9.5-7.7 2.2-0.6 4.4-1.5 5-1.9 0.6-0.4 5.6-0.9 11.1-1.1 7.9-0.3 10.6-0.8 12-2.1 1.1-1 2.3-1.7 2.9-1.7 0.6 0 2-1.2 3.3-2.6 1.2-1.4 2-3 1.7-3.5-0.3-0.6-6.5-1-15.2-1-10.9-0.1-15.5-0.4-17.3-1.5-1.4-0.8-4.1-1.5-6-1.5-1.9-0.1-5.5-0.6-8-1.3-2.5-0.7-5.7-1.9-7-2.8-1.4-0.8-5.8-3.2-9.7-5.2-5.6-2.8-8.6-3.7-12.5-3.8-4.6 0-5-0.2-2.8-1 1.4-0.6 3.7-1.9 5.3-3 1.5-1 3.5-1.9 4.5-1.9 0.9 0 4.4-1.4 7.7-3.1 5.8-3 6.6-3.1 21.5-3.5 14.9-0.5 15.6-0.6 18-3 1.4-1.3 2.9-2.4 3.5-2.4 0.6 0 2.5-1.4 4.4-3.2 1.8-1.8 3-3.9 2.7-4.6-0.4-0.8-2.9-1.2-7.3-1.2-3.8 0-7.2-0.4-7.8-0.9-0.6-0.6-3.7-1.1-7-1.3-4.4-0.2-5.5-0.6-4-1.2 1.1-0.4 3.8-1.7 6-2.7 3.9-1.8 11.1-1.9 494-1.9z"/>
		<path id="Path 2" class="s2" d="m66 0h75c41.3 0 74.8 0.3 74.6 0.8-0.2 0.4-2.2 1-4.5 1.4-2.2 0.5-4.1 1.3-4.1 1.8 0 0.5-0.7 1-1.5 1-0.8 0-1.5 0.8-1.5 1.8 0 0.9 0.5 2.3 1.2 3 0.9 0.8 4.7 1.2 12.1 1.2 6.1 0 10.9 0.4 11.2 1 0.3 0.6 1.7 1 3.3 1 2.7-0.1 2.7-0.1 0.7 1.9-1.8 1.8-3.7 2.1-17.5 2.5-14.9 0.4-15.7 0.5-21.5 3.5-3.3 1.7-6.8 3.1-7.7 3.1-1 0-3.9 1.4-6.5 3-2.7 1.7-5.7 3-6.8 3-1.2 0-2.5 0.4-3 0.9-0.6 0.5-3.2 1.6-6 2.4-4.2 1.2-5 1.8-5 3.8 0 2.4 0 2.4 12.5 2.6 12.2 0.3 12.7 0.4 20 4 4.1 2 8.6 4.4 10 5.2 1.3 0.9 4.5 2.1 7 2.8 2.5 0.7 6 1.2 7.8 1.3 1.7 0 4.2 0.6 5.5 1.3 1.2 0.6 6.5 1.5 21.2 2.3l-9.2 0.2c-5.1 0.1-9.5 0.5-9.7 1-0.2 0.4-2 1-4 1.5-2.3 0.4-5.4 2.4-8.6 5.5-2.8 2.6-5 5-5 5.5 0 0.4-1.7 2.5-3.7 4.8-2.1 2.3-4.8 5.9-6 8-1.3 2.1-2.6 3.9-3 3.9-0.5-0.1-2.7 2.3-5 5.2-2.3 2.9-4.3 6.3-4.3 7.6 0 1.2 0.4 2.4 1 2.7 0.6 0.3 1.8-0.2 2.8-1 1.3-1.1 5.2-1.5 19-1.5 9.4 0 17.2 0.2 17.2 0.5 0 0.3-1.1 2.6-2.5 5.3-1.4 2.6-2.5 5.2-2.5 5.7 0 0.5-1.2 3.5-2.7 6.5-1.5 3-3.9 7.3-5.3 9.5-1.5 2.2-3.9 6.6-5.3 9.8-2.3 4.9-3.2 5.9-6.4 6.8-2.1 0.7-5 2-6.5 3-1.6 1.1-3.5 1.9-4.3 1.9-1 0-1.4 0.8-1.2 2.3 0.2 1.9 0.9 2.2 5.2 2.5 2.8 0.2 5.9-0.1 7-0.6 1.1-0.5 4.3-1.5 7-2.1 2.8-0.7 6.7-2.4 8.8-3.9 2-1.5 4.9-3.3 6.2-3.9 1.4-0.7 2.7-1.2 2.9-1 0.3 0.1 0.5 4.7 0.6 10.2 0.1 5.5-0.1 10.7-0.4 11.5-0.3 0.8-1.4 4.4-2.5 8-1.1 3.6-2.3 8.8-2.6 11.5-0.4 2.8-2.8 9.3-5.3 14.5-2.5 5.2-6 11.8-7.9 14.5-2.1 3-4.9 5.7-7.1 6.7-2 1-4.6 1.8-5.7 1.8-1.1 0-3 1-4.2 2-1.3 1.1-2.2 2.8-2 3.8 0.2 1.4 1.3 1.7 6.4 1.7 5.7 0 6.5-0.3 10-3.6 2.1-1.9 5.8-4.3 8.3-5.3 2.5-1 5.6-2.4 7-3.1 1.4-0.8 5.2-3.5 8.4-6.2 3.3-2.6 7.6-6.4 9.6-8.3 1.9-1.9 5.7-6.9 8.4-11 2.7-4.1 5.1-6.9 5.3-6.2 0.1 0.6-0.6 3-1.7 5.2-1.1 2.2-2 4.9-2 6 0 1.1 0.7 2.3 1.6 2.8 1.3 0.5 1.5 1.6 1 4.7-0.4 2.7-0.2 4.5 0.8 5.5 0.7 0.8 1.6 3 2 4.8 0.3 1.7 1.7 4.7 3.1 6.5 1.3 1.7 2.4 3.9 2.4 4.7 0 0.8 1.1 2.5 2.3 3.7 1.9 1.7 2.4 3.7 3 10.5 0.4 4.6 1.3 8.9 2 9.7 1 1.1 1.2 6.2 1.1 20.3-0.2 11.8 0.1 19 0.7 19.3 0.6 0.3 1 1.3 1 2.3-0.1 0.9 0.6 2.3 1.5 3 0.8 0.6 1.2 1.8 0.9 2.5-0.4 0.6 0.1 3.7 1.1 6.7 1 3 2.1 6.3 2.6 7.3 0.5 0.9 0.9 4 0.9 6.7 0 2.8 0.4 5.2 1 5.5 0.6 0.3 0.7 1.9 0.4 3.8-0.4 1.9-0.2 3.5 0.5 4 0.6 0.4 1.1 1.7 1.1 3 0.1 1.2 0.9 4 2 6.2 1.1 2.2 2 4.7 2 5.5 0.1 0.8 1.2 3.5 2.5 6 1.3 2.5 3.3 6.4 4.5 8.8 1.1 2.3 2.4 4.4 3 4.7 0.6 0.3 1 1.4 1 2.5 0 1.2 1 2.4 2.5 3 1.4 0.6 2.7 1.4 3 2 0.3 0.6 2.9 2.5 5.8 4.3 2.8 1.9 6.7 4.8 11.7 9.7l-0.5 18c-0.3 11.5-0.1 18.2 0.5 18.5 0.6 0.3 1 1.4 1 2.5 0 1.1 0.8 2.4 1.8 2.9 0.9 0.4 2.5 2.4 3.5 4.2 1 1.9 2.9 5 4.3 6.9 1.4 1.9 3.4 4.4 4.4 5.5 1.1 1.1 3.6 4 5.7 6.4 2.1 2.4 4.7 4.7 5.8 5.1 1.1 0.4 3 2.8 4.3 5.3 2.1 4.5 2.2 5.5 1.8 27.4-0.3 21.6-0.4 23-2.7 27.3-1.2 2.5-2.9 4.8-3.6 5.3-0.7 0.4-1.3 1.6-1.3 2.7 0 1.1-0.4 2-1 2-0.6 0-1.9 1.6-3 3.5-1.1 1.9-2.7 3.5-3.5 3.5-0.8 0-2.2 1-3.1 2.3-0.8 1.2-2.5 2.8-3.7 3.4-1.2 0.7-3.9 2.1-6 3-2.1 1-3.7 2.1-3.7 2.6 0 0.4-1 0.7-2.2 0.7-1.3 0-4.3 0.8-6.8 1.9-2.5 1.2-5.6 2.1-7 2.1-1.4 0-5.2 1.1-8.5 2.5-4.2 1.7-7.9 2.5-12.5 2.5-3.6 0-8.7 0.7-11.5 1.6-2.7 0.9-6.4 2-8 2.6-1.6 0.6-5.4 1.3-8.2 1.5-4.3 0.2-5.3 0.6-5.3 2.1 0 0.9-1 2.2-2.2 2.9-1.3 0.6-5 1.5-8.3 1.9-3.3 0.3-7.6 1.3-9.5 2.2-1.9 0.8-4.8 2.1-6.5 2.8-1.6 0.8-7.3 3.2-12.5 5.4-7.6 3.2-10.7 4-15.5 4-3.3 0-7.6 0.6-9.5 1.4-1.9 0.8-6.1 1.8-9.4 2.3-3.2 0.4-6 1.1-6.2 1.6-0.2 0.4-1.7 0.7-3.4 0.7-1.6 0-3.2-0.5-3.5-1-0.3-0.6-5-1-11-1-7.5 0-10.6 0.4-11 1.3-0.2 0.6-3.1 2.1-6.2 3.1-3.2 1-6.9 3-8.3 4.3-1.4 1.3-3.5 2.7-4.8 3.1-1.2 0.4-2.5 1.3-2.7 2-0.4 0.9-13 1.2-116.5 1.2v-493.5l2.2-1.5c1.3-0.8 4.8-2.8 7.8-4.4 3-1.6 7.3-3.8 9.5-4.9 2.2-1.1 7.8-5.8 12.5-10.6 4.7-4.7 10.1-11.3 12-14.6 1.8-3.3 4.2-7.1 5.2-8.5 1-1.4 1.9-3.1 1.8-3.7 0-0.7 1.6-3.2 3.5-5.5 2-2.4 3.5-5.1 3.5-6 0-1 0.5-2 1-2.3 0.6-0.3 0.9-1.1 0.8-1.7-0.1-0.7 0.6-2.9 1.6-4.8 1-1.9 1.5-4.3 1.2-5.2-0.3-1-0.1-2 0.4-2.3 0.6-0.3 1-3 1-6 0-3 0.5-5.7 1-6 0.6-0.3 1-4.5 1-9.5zm661.5 0.1l272.5-0.1v600l-106.8-0.1c-63.1 0-109.2-0.5-112.7-1-3.3-0.6-8-1.2-10.5-1.6-2.5-0.3-5.2-1.1-6-1.8-0.8-0.8-3.5-1.8-6-2.4-2.5-0.6-5-1.5-5.5-2.1-0.5-0.6-1.6-1-2.2-1-0.7 0-3-1.3-5-2.9-2.1-1.7-5.8-3.7-8.3-4.5-2.5-0.9-6-1.6-7.7-1.6-1.8 0-3.5-0.5-3.8-1-0.3-0.6-6-1-14-1-9.8 0-14.1-0.4-15.7-1.4-1.3-0.7-6.1-1.6-10.8-2-5.6-0.3-9-1.1-10-2.1-0.8-0.8-2.5-1.5-3.7-1.5-1.3 0-3.7-1.1-5.3-2.5-1.6-1.4-3.9-2.5-5-2.5-1.1 0-2.2-0.5-2.5-1-0.3-0.5-2-1.7-3.7-2.5-1.8-0.9-3.9-1.5-4.5-1.5-0.7 0-2.5-1.1-4-2.4-1.6-1.3-4.6-3.3-6.8-4.5-2.2-1.2-5.8-3.8-8-5.9-2.2-2-5.4-4.4-7-5.2-1.6-0.8-5.2-3.8-8-6.6-2.7-2.8-6.1-5.8-7.5-6.6-1.4-1-2.8-3-3.2-5-0.4-1.8-1.6-4.5-2.8-6-1.1-1.6-2-3.7-2-4.8 0-1.1-0.7-2.2-1.5-2.5-1.2-0.4-1.5-2.4-1.5-9.3-0.1-6.7 0.3-9 1.5-10.2 1.2-1.1 1.6-3.3 1.5-8-0.1-5.7 0.1-6.4 1.5-5.2 1.2 1 1.8 1 3 0 1-0.8 1.6-2.8 1.5-5.3-0.1-2.4 0.5-4.6 1.4-5.5 1.2-1.1 1.6-4.5 1.9-14 0.3-9.9 0.8-13.8 2.5-18.5 1.3-3.3 3.1-6.9 4.2-8 1.1-1.1 2-3.2 2-4.7 0-1.8 1.7-5 4.5-8.5 2.4-3.2 4.5-6.5 4.5-7.3 0-0.8 2.5-4 5.5-7 3.1-3 6.4-7.2 7.5-9.3 1.1-2 2-4.5 2-5.4 0-1 1.5-3 3.3-4.5 3-2.6 3.1-2.9 1.5-4.3-1-0.8-1.4-1.7-0.8-2 0.5-0.3 1.3-3.5 1.7-7.2 0.6-6.1 1.2-7.3 4.8-11.3 2.2-2.5 4.5-5.3 5-6.2 0.5-0.9 3.1-4.3 5.8-7.7 3.2-4.1 4.5-6.7 4.2-8.1-0.3-1.1 0-2.2 0.5-2.5 0.5-0.3 1-1.6 1-3 0-1.4 0.3-2.7 0.8-2.9 0.4-0.2 1-7.3 1.5-15.7 0.4-8.5 1.2-16 1.7-16.6 0.6-0.7 0.9-1.9 0.8-2.5 0-0.7 0.2-2.2 0.6-3.3 0.4-1.1 1.2-2.8 1.7-3.7 0.5-1 0.9-6.2 0.7-21.3l3.9-4c2.2-2.2 4.8-5.3 5.8-7 1-1.7 2.6-3.5 3.4-4.1 0.9-0.6 2.2-2.6 3-4.5 0.8-1.9 3.9-6 6.8-9.1 2.9-3.2 5.3-6.6 5.3-7.5 0-1 0.6-2.7 1.4-3.8 0.7-1.1 1.6-4.2 2-7 0.4-2.7 0.9-6.3 1-8 0.2-1.7 1.1-5.8 2-9.2 0.9-3.5 1.6-8.2 1.5-10.5-0.1-2.4 0.4-6.8 1.1-9.8 0.6-3 1.2-7.7 1.4-10.5 0.2-2.7 1.1-6.6 2-8.5 0.9-1.9 1.7-4.2 1.7-5 0-0.9 1.2-0.1 3 2 1.6 1.9 2.9 4.6 2.9 6-0.1 1.4 0.6 3.2 1.5 4 0.9 0.8 1.6 2.6 1.6 4 0 1.4 0.6 3.2 1.4 4 0.8 0.8 2.2 4.7 3 8.5 0.9 3.8 1.8 10.2 2.1 14 0.3 3.8 0.9 7.4 1.4 8 0.6 0.7 1.5 0.5 2.5-0.5 0.9-0.8 1.6-3 1.5-4.7 0-2 0.8-4 1.9-5 1.2-1.2 2.5-4.8 3.5-10 0.9-4.6 2.4-9.5 3.4-11 0.9-1.5 2.8-6.3 4.1-10.7 2-6.5 2.5-10.8 3.2-36.1l-4.1-5c-2.2-2.7-5.2-6.3-6.7-8-1.6-1.6-4-4.7-5.5-7-1.5-2.2-2.8-4.4-2.8-5 0-0.5-1-2-2.3-3.3-1.6-1.7-1.8-2.2-0.7-2.2 0.8 0 3.8 0.6 6.5 1.5 3.6 1 9.7 1.5 21.3 1.5 14.1 0 16.8 0.3 21 2.1 2.6 1.1 5.7 2.5 7 3.2 1.8 1 2.5 0.9 3.8-0.3 1.5-1.4 1.2-2.1-2.7-8-2.3-3.6-7.2-10.1-10.7-14.5-3.6-4.4-7.1-8.4-7.8-9-0.7-0.5-1.3-1.8-1.4-2.7 0-1.1-1.6-2.5-4.2-3.7-2.4-1-5-2.6-5.8-3.5-0.8-0.9-2.2-1.7-3-1.6-0.8 0-2.9-0.6-4.5-1.4-1.6-0.8-3.7-2.2-4.5-3.1-0.8-0.9-2.4-1.6-3.5-1.5-1.4 0-2.5-1.2-3.7-4-1-2.2-2.6-4.3-3.5-4.7-1-0.3-3.5-1.9-5.5-3.5-3.2-2.4-3.6-3-2.5-4.3 0.6-0.9 2.1-1.5 3.2-1.5 1.1 0 2.5-0.5 3.2-1.2 0.7-0.8 5.3-1.6 12.7-2 6.4-0.5 11.8-1.2 12.1-1.8 0.3-0.5 1.7-1 3.3-1 1.5 0.1 3.9-0.8 5.5-2 1.5-1.1 3.3-2 4-2 0.6 0 2.7-1.3 4.6-2.8 2-1.6 3.1-3.2 2.7-3.9-0.4-0.9-3.4-1.3-9.6-1.3-5 0-10-0.5-11.2-1.2-1.3-0.6-3-1.5-3.8-2-0.8-0.4-2.6-1.3-4-1.9-1.4-0.6-3.4-1.6-4.5-2.2-1.1-0.6-3.1-1.6-4.5-2.3-1.4-0.6-4.7-2.2-7.3-3.5-2.6-1.3-6-3.4-7.5-4.6z"/>
		<path id="Path 3" class="s3" d="m229.5 0l-4 1.9c-2.2 1-4.9 2.3-6 2.7-1.5 0.6-0.4 1 4 1.2 3.3 0.2 6.4 0.7 7 1.3 0.6 0.5 4 0.9 7.8 0.9 4.4 0 6.9 0.4 7.3 1.3 0.3 0.6-0.9 2.7-2.7 4.5-1.9 1.8-3.8 3.2-4.4 3.2-0.6 0-2.1 1.1-3.5 2.4-2.4 2.4-3.1 2.5-18 3-14.9 0.4-15.7 0.5-21.5 3.5-3.3 1.7-6.8 3.1-7.7 3.1-1 0-3 0.9-4.5 1.9-1.6 1.1-3.9 2.4-5.3 3-2.2 0.8-1.8 1 2.8 1 3.9 0.1 6.9 1 12.5 3.8 3.9 2 8.3 4.4 9.7 5.2 1.3 0.9 4.5 2.1 7 2.8 2.5 0.7 6.1 1.2 8 1.3 1.9 0 4.6 0.7 6 1.5 1.8 1.1 6.4 1.4 17.3 1.5 8.7 0 14.9 0.4 15.2 1 0.3 0.5-0.5 2.1-1.7 3.5-1.3 1.4-2.7 2.6-3.3 2.6-0.6 0-1.8 0.7-2.9 1.7-1.4 1.3-4.1 1.8-12 2.1-5.5 0.2-10.5 0.7-11.1 1.1-0.6 0.4-2.8 1.3-5 1.9-3.1 0.8-5.3 2.6-9.5 7.7-3 3.6-7 8.6-8.8 11.2-1.8 2.6-4.7 6.2-9.7 11.2h18.8c14 0 18.9 0.3 19.3 1.3 0.3 0.6 0.1 1.7-0.5 2.2-0.6 0.5-1.1 1.9-1.1 3 0 1.1-0.4 2.5-0.8 3-0.5 0.5-1.5 2.6-2.2 4.5-0.7 1.9-2.7 6.4-4.3 10-1.7 3.6-4.3 8.3-5.8 10.5-1.5 2.2-3.9 6.6-5.3 9.8-1.4 3.1-2.3 5.7-1.9 5.7 0.5 0.1 2.1-0.9 3.8-2.2 1.7-1.2 3.3-2.8 3.7-3.5 0.5-0.7 3-1.5 5.8-1.8 2.7-0.3 5-0.9 5-1.5 0-0.6 0.9-1 2-1 1.1 0 2.2 0.4 2.5 1 0.3 0.6 0.2 1.8-0.1 2.8-0.4 0.9-0.6 6.9-0.6 13.2 0.1 6.3-0.3 12.4-0.8 13.5-0.5 1.1-1.6 4.3-2.5 7-0.9 2.8-2.3 8.4-3.1 12.5-0.9 4.8-3.4 11.4-6.7 18.1-3.3 6.7-4.7 10.4-3.7 10.1 0.8-0.3 3.3-1.7 5.5-3.2 2.2-1.5 5-3.9 6.3-5.3 1.2-1.5 2.6-2.7 3.1-2.7 0.5 0 2.4-1.5 4.2-3.2 1.7-1.8 4.8-5.8 6.7-8.8 1.9-3 5-7.3 6.8-9.5 2-2.3 3.3-5.1 3.4-6.7 0-1.6 0.4-2.8 1-2.8 0.6 0 0.3-1.1-0.5-2.5-0.8-1.4-1.4-3.5-1.4-4.7 0.1-1.3-0.1-3-0.4-3.8-0.3-0.8-0.9-3.3-1.3-5.5-0.4-2.2-0.9-6.5-1-9.5-0.2-3-0.1-6.5 0.1-7.7 0.4-1.7 1.1-2.2 2.8-2 2 0.2 2.2 0.8 2.4 6.7 0.1 3.6 0.5 8.5 0.9 11 0.3 2.5 1.7 6 3 7.8 1.6 2.1 2.3 4.3 2.2 6.5-0.2 2 0.6 4.3 2 6.2 1.3 1.7 2.3 3.9 2.3 5 0 1.1 1.1 4.3 2.4 7 1.4 2.8 2.5 5.4 2.5 6 0 0.6 2.1 4.2 4.6 8 3.2 4.9 4.9 8.7 5.5 12.5 0.5 3 1.1 6.2 1.2 7 0.2 0.8 0.6 1.9 0.9 2.5 0.4 0.6-0.8 1-2.7 1-3.2 0-3.4-0.2-3.9-4.5-0.4-2.5-1.7-6.2-3.1-8.2-1.4-2.1-2.5-4.8-2.5-6 0-1.3-0.9-3.4-2-4.8-1.1-1.4-2-2.8-2-3.3 0-0.4-1.4-3.6-3-7.2-1.6-3.6-3.1-7.1-3.2-7.8 0-0.6-0.4 1.7-0.8 5.3-0.4 3.6-0.8 9.7-0.9 13.5-0.1 5.3 0.2 7.4 1.4 8.5 0.9 0.8 1.5 2.6 1.4 4-0.2 1.5 1.1 4.5 3.2 7.5 1.9 2.8 4 5.3 4.7 5.8 0.6 0.4 1.2 1.3 1.2 2 0 0.6 1.3 2.5 3 4.2 2.6 2.6 3 3.7 3 8.3 0 4.2 0.3 5.1 1.5 4.7 1.1-0.4 1.5 0.3 1.5 2.7 0 1.8-0.6 4.2-1.3 5.3-0.8 1.1-1.9 4.7-2.5 8-0.7 3.3-1.2 10.4-1.2 15.8 0 5.4 0.4 9.9 1 10.2 0.6 0.3 1 1.4 1 2.5 0 1.1 0.7 2.2 1.5 2.5 0.9 0.3 1.5 1.7 1.5 3.5 0 1.6 0.5 4.2 1.1 5.7 0.6 1.6 1.3 3.9 1.5 5.3 0.3 1.4 0.7 4.7 1 7.5 0.4 2.7 1 5.4 1.4 6 0.4 0.6 1.1 3.9 1.4 7.5 0.4 3.6 1.4 7.9 2.2 9.5 0.8 1.6 1.9 4.6 2.4 6.5 0.5 1.9 2 5.1 3.3 7 1.3 1.9 2.9 5.1 3.5 7 0.6 1.9 3.1 5.5 5.4 8 2.4 2.5 6.4 5.8 8.8 7.4 2.5 1.6 6.4 4.6 13 10.1l-0.2 38 3.6 4.7c2 2.7 3.6 5.2 3.6 5.8 0 0.6 1.1 1.9 2.5 3 1.4 1.1 2.5 2.7 2.5 3.5 0 0.8 1.1 2.4 2.5 3.5 1.4 1.1 2.5 2.6 2.5 3.2 0 0.7 1.3 2.7 3 4.3 2.7 2.7 3 2.8 3 1 0-1.1-0.4-3.6-1-5.5-0.5-1.9-0.8-5.2-0.5-7.3q0.5-3.7 1.8-3.1c0.6 0.3 1.8-0.2 2.4-1 0.9-1.1 1-2.1 0.3-3.1q-1-1.5 0-2c0.6-0.3 1-2.2 1-4.3 0-2-0.5-4.3-1.2-5-0.7-0.7-2-1.2-2.8-1.2-1.1 0-1.4-0.8-1.1-2.8 0.2-2-0.3-3.1-2.3-4.5-1.4-0.9-2.6-2.3-2.6-3 0.1-0.6-0.7-1.9-1.7-2.8-1-1-2.7-1.9-3.8-2.1-1.5-0.2-2-1.1-2-3.2 0-1.6-0.6-3.1-1.3-3.3-0.6-0.1-1.2-1-1.2-1.8 0-0.8 0.7-1.5 1.5-1.5 0.8 0 1.5-0.3 1.5-0.8 0.1-0.4-1.7-2.6-4-5-2.2-2.3-4-4.5-4-5 0.1-0.4-1.7-3.4-3.9-6.7-2.2-3.3-4-6.7-4-7.5-0.1-0.8-0.7-2.4-1.6-3.5-0.8-1.1-1.4-2.9-1.5-4 0-1.1-0.7-3.1-1.6-4.5-1.3-1.8-1.6-3.7-1.1-7 0.3-2.5 0.1-6.5-0.5-9-0.6-2.5-2.2-8.3-3.5-13-1.4-4.7-2.2-9.1-1.9-9.8 0.3-0.6-0.3-4.5-1.4-8.5-1.1-3.9-2.2-9.9-2.6-13.2-0.3-3.3-0.9-6.9-1.4-8-0.5-1.1-1.3-4.7-1.9-8-0.5-3.3-1.6-8.7-2.4-12-0.9-3.3-2.1-8-2.7-10.5-0.6-2.5-2.5-6.1-4.1-8-1.6-1.9-2.9-4.5-2.9-5.8 0-1.2-0.4-2.4-1-2.7-0.6-0.3 0.1-1.9 1.5-3.8 1.4-1.7 2.2-3.6 1.7-4.2-0.4-0.5 0.3-0.1 1.6 1 1.2 1.1 2.2 2.4 2.2 3-0.1 0.6 0.6 1.7 1.5 2.5 0.9 0.8 1.9 3.1 2.3 5 0.3 1.9 1.5 4.3 2.7 5.3 1.5 1.3 1.7 2 0.8 3-0.9 0.9 0 2.1 4.5 5.5 3.1 2.4 6 4.9 6.3 5.5 0.3 0.7 3.6 3.3 7.3 5.9 3.6 2.7 7.5 4.8 8.6 4.8 1.1 0 2-0.4 2-1 0-0.6-1.1-3.1-2.4-5.8-1.3-2.6-3.4-6.7-4.6-9.2-1.2-2.5-3.3-8.3-4.6-13-1.3-4.7-3-10.5-3.8-13-0.8-2.5-1.8-7.2-2.1-10.5-0.4-3.3-1.3-8.5-2.1-11.5-1-4.2-1.4-14-1.4-40.3 0-34 0-34.7 2-34.7 1.3 0 2.6 1.2 3.5 3.2 1 2 1.5 5.8 1.5 9.8-0.1 3.6 0.2 8.3 0.6 10.5 0.6 3.2 2.2 5.4 8.3 11.3 4.2 4 8.2 7.3 8.8 7.2 0.7 0 3.2 1.9 5.6 4.2 2.3 2.4 8.2 6.4 13 9 5.1 2.9 10.8 5.1 13.7 5.5 2.8 0.5 5 0.6 5.1 0.3 0-0.3-1.8-1.7-4.1-3.3-2.4-1.6-4.9-4.6-6.3-7.5-1.3-2.6-3.6-8-5-12-1.5-3.9-2.7-8.4-2.7-10 0-1.5-0.4-3.2-0.8-3.8-0.4-0.7-1.8-1.4-3.2-1.5-1.7-0.3-2.6-1.1-2.8-2.7-0.1-1.8 0.3-2.2 4.8-2.2v-19c0-16.2 0.2-19 1.5-19 0.8 0 1.5-0.7 1.5-1.5 0-1 0.8-1.4 2.2-1.3 1.8 0.2 2.5 1.2 3.1 4.3 0.4 2.2 1.2 6.7 1.8 10 0.5 3.3 1.4 6.8 1.9 7.7 0.6 1 1 2.2 1 2.8 0 0.6 0.9 2.2 2 3.7 1.2 1.6 2.1 3.5 2.1 4.3-0.1 0.8 0.9 3 2.2 4.7 1.2 1.8 3 3.3 3.9 3.3 1 0 2 0.4 2.3 1 0.3 0.6 0.1 1.7-0.5 2.5-0.7 1-0.6 2.1 0.2 3.3 0.7 1 4.4 4.8 8.2 8.3 3.8 3.5 7.8 7.2 8.8 8.1 1 1 2.2 1.8 2.8 1.8 0.6 0 1.6 0.9 2.2 2 0.7 1.1 2.1 2 3 2 1 0 3.2 1.3 4.8 3 1.6 1.7 3.3 3 3.7 3 0.5 0 2.8 0.8 5.3 1.9 2.5 1 5.9 3.2 7.5 4.9 2.4 2.4 4.6 3.3 11.5 4.6 4.7 0.9 9.7 1.6 14 1.6l-3.3-4.9c-1.7-2.6-5-7.5-7.3-10.7-2.3-3.3-4.9-6.6-5.8-7.4-0.9-0.8-1.7-2.1-1.6-2.8 0-0.6-1.3-2.7-2.8-4.5-1.5-1.7-3.3-4.3-4-5.7-0.7-1.4-2.3-4.5-3.6-7-1.8-3.3-3.3-4.8-5.7-5.6-2.3-0.7-3.5-1.8-3.7-3.2-0.1-1.4 0.4-2.3 1.3-2.5 1.3-0.2 1.1-0.9-1-3.7-1.5-1.9-4.2-6.5-6.1-10.3-1.9-3.7-3.4-7.2-3.4-7.7 0-0.6-1.2-4-2.6-7.8-1.6-4.1-3.8-7.6-5.5-9-1.6-1.2-2.9-3.1-2.9-4.2 0-1.2 0.7-2 1.7-2 1 0 2.4 0.5 3.1 1.2 1 1.1 1.2 0 1.2-5.5 0-6.4 0.1-6.7 2.2-6.5 2.1 0.3 2.3 0.9 2.5 7 0.3 6.3 0.5 6.9 3.3 8.8 1.6 1.1 3.3 2 3.7 2 0.5 0 0.7-1.2 0.5-2.5-0.1-1.9 0.3-2.5 1.8-2.5 1.1 0 2.7 1.1 3.5 2.5 0.8 1.4 1.3 2.9 1 3.5-0.3 0.5 0.4 1 1.5 1 1.1 0 2.3 0.7 2.7 1.5 0.5 0.9 0.1 2.2-1 3.3-1.2 1.1-1.7 2.6-1.3 4.2 0.2 1.4 0.9 4.1 1.3 6 0.5 1.9 1.7 4.6 2.6 6 1 1.4 1.7 3.5 1.7 4.7 0 1.3 0.9 3.5 2 5 1.2 1.6 2 3.7 2 4.8 0 1.1 1.8 4.7 4.1 8 2.3 3.3 6.7 8.5 9.8 11.6 3.1 3.1 6.7 7.2 8.1 9.2 1.4 1.9 4.9 5.3 7.8 7.4 2.9 2.1 6.7 4.6 8.5 5.6 1.7 1 3.6 2.4 4.2 3.1 0.6 0.8 2.4 1.7 4 2.1 1.6 0.3 5.8 1.2 9.2 1.8 3.4 0.7 6.4 0.9 6.7 0.4 0.3-0.4-1.5-2.6-4-5-2.6-2.3-5.3-5.5-6.2-7.2-0.9-1.7-2.6-5.5-3.9-8.5-1.3-3-3.2-8.2-4.3-11.5-1.1-3.3-2.6-11.8-3.5-19-0.8-7.2-1.5-20.3-1.5-45.5l2.2 0.2c2.1 0.3 2.3 0.9 2.8 11.8h5.5c4.2 0 5.5-0.3 5.5-1.5 0-1.2 1.7-1.5 9.2-1.5 7.8 0 10.2 0.4 15 2.5 3.4 1.4 5.6 3 5.4 3.7-0.1 0.7-1 1.7-1.9 2.3-1.2 0.7-2.9 0.4-6.2-1.3-3.1-1.5-6.2-2.2-9.8-2.1-4.4 0.1-4.7 0.2-2.2 0.8 1.6 0.4 5.2 2.2 8 3.9 2.7 1.7 5.4 3.1 6 3.1 0.6 0 1.7 0.8 2.5 1.7 0.8 0.9 3.6 2.7 11 6.4l3.1-6.8c3-6.4 3.1-6.9 2-11.7-1-3.8-2.6-6.4-6.7-10.8-3-3.1-6.1-5.7-6.9-5.7-0.8 0-4.1-1.4-7.3-3-3.1-1.7-7-4-8.5-5.3-2.5-1.9-4.3-2.3-15.5-2.7-12.3-0.5-12.7-0.6-13-2.8-0.2-2.2-0.1-2.2 13-2.2 12.6-0.1 13.5 0.1 16.8 2.4 1.9 1.4 6.1 3.9 9.2 5.6 3.2 1.6 6.6 3 7.5 3 1 0.1 4.7 3.1 8.3 6.9 4.2 4.4 6.8 7.9 8 13.6l3.5-5.3c1.9-2.8 3.5-5.5 3.5-6 0-0.4 2.6-3.5 5.7-6.8 3.2-3.4 6.9-6.4 8.3-6.8 1.4-0.3 4.7-2.3 7.5-4.3 2.7-2.1 8.1-5.1 12-6.7 3.9-1.6 10.1-3.6 14-4.4 3.9-0.8 11.3-1.6 16.5-1.9 5.5-0.2 9.9 0 10.5 0.6q1 1-0.5 2.6c-0.9 1-3.1 1.6-5.8 1.5-3 0-4.1 0.4-3.7 1.2 0.3 0.7-1.7 3.2-4.5 5.5-2.7 2.4-7.4 5.2-10.3 6.4-2.8 1.1-6.1 3.2-7.2 4.6-1.1 1.5-2.5 2.3-3.3 2-0.6-0.4-1.2-2.3-1.2-4.2 0-3.1 0.4-3.7 3.7-5.1 2.1-0.8 5.5-2.1 7.6-2.7 2.1-0.7 5.2-2.7 7-4.6 2.4-2.5 2.7-3.2 1.2-2.6-1.1 0.4-5.1 1.3-9 2-3.9 0.7-8.8 2.2-11 3.3-2.2 1-5.1 2.3-6.5 2.7-1.4 0.5-4.8 2.6-7.5 4.7-2.8 2-6.1 4-7.5 4.4-1.4 0.3-4.4 2.9-6.8 5.8-2.4 2.8-6.5 8.5-9.1 12.6-2.6 4.1-6.4 10.9-8.4 15-1.9 4.1-3.8 8.5-4.1 9.7-0.6 2.2-0.4 2.2 1.9 1 1.4-0.6 2.5-1.9 2.5-2.7 0-0.8 1.5-3.8 3.4-6.5 2.3-3.5 4.8-5.7 8.2-7.4 2.7-1.3 6.6-3.7 8.6-5.3 2.1-1.5 4-2.8 4.3-2.8 0.3 0 3.5-2 7.3-4.4 3.7-2.4 8.1-4.8 9.7-5.4 3-1 2.9-1-1.5-1.1-2.6-0.1-7.4 1-11.5 2.5-3.9 1.4-7.7 2.6-8.5 2.7-0.9 0.1-1.6-0.7-1.7-2.1-0.2-1.4 0.5-2.6 2-3.3 1.2-0.7 4.9-2 8.2-3.1 4.7-1.4 9.1-1.8 19.8-1.8 8.1 0 13.9 0.4 14.2 1 0.3 0.5 0.1 1.6-0.4 2.2-0.5 0.7-2.6 1.6-4.7 1.9-2.2 0.3-5.3 1.5-9.9 5l4-0.1c2.2 0 7.7-0.3 20.5-1.5v-9.8c0-9 0.1-9.7 2-9.7 1.1 0 2.2 0.3 2.4 0.7 0.3 0.5 0.4 6.2 0.4 12.8 0 6.6 0 14 0.1 16.5 0 2.5 1.2 7.7 2.7 11.5 1.6 4.4 2.7 9.4 2.8 13.5 0.1 3.7 0.9 7.8 1.9 9.5 0.9 1.7 2.5 5.2 3.7 8 1.1 2.7 2 6 2 7.2 0 1.3 1 5.3 2.2 9 1.1 3.8 2.4 9 2.9 11.8 0.4 3 0.7-6.3 0.7-22.5 0-25.9 0.1-27.9 2.2-33.5 1.5-4.1 2-7.2 1.6-9.8-0.4-2.7-0.1-4.4 1.3-6.5 1-1.5 2.6-3.9 3.5-5.5q1.6-2.7 4.1-2.7c1.4 0 2.7 0.4 3 1 0.3 0.5-0.6 2.3-2 4-1.4 1.7-2.5 3.3-2.5 3.7 0 0.5 1.2 1.4 2.8 2.1 1.5 0.7 3.8 1.2 5.2 1.2 1.7 0 3.3 1 5 3.4 1.4 2 5.9 8.4 10 14.3 4.2 6 8.1 12.1 8.7 13.8 0.6 1.7 1.4 4.3 1.7 6 0.4 1.7 1.7 5.2 3.1 8 1.3 2.7 2.7 6.3 3 8 0.5 2.4 0.8 2.7 1.5 1.5 0.8-1.2 1-1.1 1 0.5 0 1.1 0.5 2.6 1.2 3.3 0.9 0.9 1.2 4.3 1.1 11-0.1 5.3-0.5 14.9-1 21.2-0.6 6.3-1.4 12.8-2 14.5-0.6 1.7-2.1 4.9-3.2 7.2-1.2 2.4-2.1 4.9-2.1 5.5 0 0.7-1.1 3.5-2.5 6.3-1.4 2.7-2.5 5.4-2.5 6 0 0.6-1.5 4.2-3.3 8-1.9 3.9-3.7 9-4 11.5-0.4 2.5-1 5.6-2.1 9.5l3.2-2.3c1.8-1.2 3.4-2.2 3.7-2.2 0.3 0 2.9-1.5 5.8-3.3 2.8-1.8 6.6-3.9 8.2-4.5 1.6-0.7 4.5-2.8 6.3-4.7 1.7-1.9 3.2-3.8 3.2-4.3-0.1-0.4 1.7-2.8 4-5.5 2.2-2.6 4-5.3 4-6 0-0.6 2.5-3.8 5.5-7 3-3.1 5.5-6.5 5.5-7.5 0-0.9 0.6-2.6 1.4-3.7 0.7-1.1 1.7-5.2 2-9 0.4-3.8 1.6-9.9 2.7-13.5 1.1-3.9 1.6-7.7 1.3-9.5-0.4-1.7-0.2-4.6 0.4-6.5 0.6-1.9 1.6-7.8 2.2-13 0.5-5.2 1.8-10.8 2.7-12.5 0.9-1.8 1.8-6.7 2.2-12.3 0.6-8.5 0.8-9.3 2.6-9 1.3 0.2 2.1 1.2 2.3 2.8 0.1 1.4 1.5 5 3 8 1.5 3 3.9 7.1 5.2 9 1.4 1.9 3.8 6.4 5.3 10 1.5 3.6 3.3 9.8 4 13.8 0.7 4 1.5 7.2 2 7.2 0.4 0 0.7-0.1 0.7-0.3 0-0.1 0.5-2.8 1-6 0.6-3.1 1.8-6.9 2.8-8.5 1.1-1.5 2.9-6.3 4.2-10.7 1.8-5.9 2.5-11.1 2.7-20 0.3-11.8 0.3-12.1-2.4-15.5-1.6-1.9-4.2-4.8-5.9-6.5-1.7-1.6-4.7-5.5-6.7-8.5-2-3-3.6-6-3.6-6.5 0-0.6-1.2-2.1-2.6-3.5-1.4-1.4-2.5-3-2.5-3.5 0.1-0.6-0.6-1.7-1.5-2.5-0.9-0.8-1.6-2.5-1.5-3.8 0-1.9 0.5-2.2 4.3-2.2 2.3 0 4.9 0.6 5.7 1.4 0.8 0.7 4.4 2 8 2.9 4.5 1.1 11.9 1.7 24.2 1.9 11.6 0.2 17.4 0 16.9-0.7-0.5-0.6-3-3.7-5.6-7-2.7-3.3-6.9-8.3-9.4-11.1-3.2-3.5-7.2-6.4-13.4-9.5-4.8-2.4-8.8-4.7-8.7-5.2 0-0.4-1-0.7-2.2-0.7-1.3 0-3.3-1-4.4-2.2-1.2-1.3-2.5-3.2-2.8-4.3-0.3-1.1-4-4.4-8.1-7.3-5.1-3.5-7.5-5.8-7.5-7.2q0-2 3.5-3.5c1.9-0.8 3.5-2 3.5-2.5 0-0.6 1.2-1 2.8-1 1.5 0.1 3.2-0.5 3.9-1.2 0.7-0.8 5.4-1.6 12.5-2.2 6.2-0.4 12-1.2 12.8-1.6 0.8-0.5 3.1-1.3 8.5-2.8l-4.2-0.1c-2.4-0.1-4.5-0.6-4.8-1.1-0.3-0.6-1.3-1-2.2-1-1 0.1-3-0.8-4.5-2-1.6-1.1-3.3-2-3.8-2-0.5 0-2.2-0.9-3.7-1.9-1.6-1.1-4.4-2.5-6.3-3.2-1.9-0.7-6-2.7-9-4.5-3-1.8-6.9-4.7-11.5-9.4h3.5c2.5-0.1 5.6 1.3 10.5 4.5 3.9 2.5 7.7 4.5 8.5 4.5 0.8 0 3.2 1.1 5.3 2.5 2 1.4 4.3 2.5 5 2.5 0.6-0.1 2.4 0.8 4 2 1.5 1.1 3.4 2 4.2 2 0.8 0 1.7 0.4 2 1 0.3 0.6 4.7 1 10 1 6.6 0 9.7 0.4 10.1 1.2 0.4 0.8-0.7 2.4-2.7 4-1.9 1.5-4 2.8-4.6 2.8-0.7 0-2.5 0.9-4 2-1.6 1.2-4 2.1-5.5 2-1.6 0-3 0.4-3.3 1-0.3 0.5-5.7 1.3-12.1 1.7-7.4 0.5-12 1.3-12.7 2.1-0.7 0.7-2.1 1.2-3.2 1.2-1.1 0-2.6 0.6-3.2 1.5-1.1 1.3-0.7 1.9 2.5 4.3 2 1.6 4.5 3.2 5.5 3.5 0.9 0.4 2.5 2.5 3.5 4.7 1.2 2.8 2.3 4 3.7 4 1.1-0.1 2.7 0.6 3.5 1.5 0.8 0.9 2.9 2.3 4.5 3.1 1.6 0.8 3.7 1.4 4.5 1.4 0.8-0.1 2.2 0.7 3 1.6 0.8 0.9 3.4 2.5 5.8 3.5 2.6 1.2 4.2 2.6 4.2 3.6 0.1 1 0.7 2.2 1.4 2.8 0.7 0.5 4.2 4.6 7.8 9 3.5 4.4 8.4 10.9 10.7 14.5 3.9 5.9 4.2 6.6 2.7 8-1.3 1.2-2 1.3-3.8 0.3-1.3-0.7-4.4-2.1-7-3.2-4.2-1.8-6.9-2.1-21-2.1-11.6 0-17.7-0.5-21.3-1.5-2.7-0.9-5.7-1.5-6.5-1.5-1.1 0-0.9 0.5 0.7 2.2 1.3 1.3 2.3 2.7 2.3 3.3 0 0.5 1.3 2.8 2.8 5 1.5 2.3 3.9 5.4 5.5 7 1.5 1.7 4.5 5.2 10.8 13l-0.4 14c-0.3 11.3-0.8 15.6-2.8 22.1-1.3 4.4-3.2 9.2-4.1 10.7-1 1.5-2.5 6.4-3.4 10.9-0.9 4.6-2.2 8.9-2.8 9.6-0.6 0.7-1.6 1.1-2.1 0.9-0.6-0.3-0.9 1.2-0.6 3.7 0.2 2.9-0.2 4.5-1.3 5.6-1.1 1-2 1.2-2.6 0.5-0.5-0.6-1.1-4.2-1.4-8-0.3-3.8-1.2-10.2-2.1-14-0.8-3.8-2.2-7.7-3-8.5-0.8-0.8-1.4-2.6-1.4-4 0-1.4-0.7-3.2-1.6-4-0.9-0.8-1.6-2.6-1.5-4 0-1.4-1.3-4.1-2.9-6-1.8-2.1-3-2.9-3-2 0 0.8-0.8 3.1-1.7 5-0.9 1.9-1.8 5.7-2 8.5-0.2 2.7-0.8 7.5-1.4 10.5-0.7 3-1.2 7.4-1.1 9.7 0.1 2.4-0.6 7.1-1.5 10.5-0.9 3.5-1.8 7.6-2 9.3-0.1 1.7-0.6 5.2-1 8-0.4 2.7-1.3 5.9-2 7-0.8 1.1-1.4 2.8-1.4 3.7 0 1-2.4 4.4-5.3 7.5-2.9 3.2-6 7.3-6.8 9.2-0.8 1.9-2.1 3.9-3 4.5-0.8 0.6-2.4 2.4-3.4 4.1-1 1.7-3.6 4.8-9.7 11l0.1 9.7c0.1 5.4-0.3 10.6-0.8 11.5-0.5 1-1.3 2.7-1.7 3.8-0.4 1.1-0.6 2.6-0.6 3.2 0.1 0.7-0.2 1.9-0.8 2.5-0.5 0.7-1.3 8.2-1.7 16.7-0.5 8.4-1.1 15.5-1.5 15.7-0.5 0.2-0.8 1.5-0.8 2.9 0 1.4-0.5 2.7-1 3-0.5 0.3-0.8 1.4-0.5 2.5 0.3 1.4-1 4-4.2 8.1-2.7 3.4-5.3 6.8-5.8 7.7-0.5 0.9-2.8 3.7-5 6.2-3.6 4-4.2 5.2-4.8 11.2-0.4 3.8-1.2 7-1.7 7.3-0.6 0.3-0.2 1.2 0.8 2 1.6 1.4 1.5 1.7-1.5 4.3-1.8 1.5-3.3 3.5-3.3 4.5 0 0.9-0.9 3.4-2 5.5-1.1 2-4.4 6.2-7.5 9.2-3 3-5.5 6.2-5.5 7 0 0.8-2.1 4.1-4.5 7.3-2.8 3.5-4.5 6.7-4.5 8.5 0 1.5-0.9 3.6-2 4.7-1.1 1.1-2.9 4.7-4.2 8-1.7 4.7-2.2 8.6-2.5 18.5-0.3 9.5-0.7 12.9-1.9 14-0.9 0.9-1.5 3.1-1.4 5.5 0.1 2.5-0.5 4.5-1.5 5.3-1.2 1-1.8 1-3 0-1.4-1.2-1.6-0.5-1.5 5.2 0.1 4.7-0.3 6.9-1.5 8-1.2 1.2-1.6 3.5-1.5 10.3 0 6.8 0.3 8.8 1.5 9.2 0.8 0.3 1.5 1.4 1.5 2.5 0 1.1 0.9 3.2 2 4.8 1.2 1.5 2.4 4.2 2.8 6 0.4 2 1.8 4 3.2 5 1.4 0.8 4.8 3.8 7.5 6.6 2.8 2.8 6.4 5.8 8 6.6 1.6 0.8 4.8 3.2 7 5.2 2.2 2.1 5.8 4.7 8 5.9 2.2 1.2 5.2 3.2 6.8 4.5 1.5 1.3 3.3 2.4 4 2.4 0.6 0 2.7 0.6 4.5 1.5 1.7 0.8 3.4 2 3.7 2.5 0.3 0.5 1.4 1 2.5 1 1.1 0 3.4 1.1 5 2.5 1.6 1.4 4 2.5 5.3 2.5 1.2 0 2.9 0.7 3.7 1.5 1 1 4.4 1.8 10 2.1 4.7 0.4 9.5 1.3 10.8 2 1.6 1 5.9 1.4 15.7 1.4 8 0 13.7 0.4 14 1 0.3 0.5 2 1 3.8 1 1.7 0 5.2 0.7 7.7 1.6 2.5 0.8 6.2 2.8 8.3 4.5 2 1.6 4.3 2.9 5 2.9 0.6 0 1.7 0.4 2.2 1 0.5 0.6 3 1.5 5.5 2.1 2.5 0.6 5.2 1.6 6 2.4 0.8 0.7 3.5 1.6 6 1.9 2.5 0.3 7 0.9 10 1.4 5 0.8 4.5 0.9-5.7 1.1-7.4 0.1-13.3-0.4-17-1.4-3.2-0.9-6.3-2-6.8-2.5-0.5-0.6-1.7-1-2.5-1-0.8 0-2.4-0.9-3.5-2q-2-2.1-2.9-1c-0.6 0.5-1.8 1-2.8 1-1 0-2-0.8-2.3-1.7-0.3-1-1.9-2.6-3.5-3.5-1.7-1-4.4-1.8-6-1.8-1.6 0-3.2-0.5-3.5-1-0.3-0.6-6.2-1-14.8-1-10.4 0.1-14.5-0.3-15.4-1.2-0.6-0.8-4.9-1.6-10.5-2-6-0.5-9.8-1.3-10.8-2.3-0.8-0.8-2.3-1.5-3.2-1.5-1 0-3.2-1.1-4.8-2.5-1.6-1.4-4.1-2.5-5.5-2.5-1.4 0-2.8-0.6-3.2-1.2-0.5-0.7-1.8-1.9-3-2.5-1.3-0.7-3-1.3-3.8-1.3-0.8 0-2.7-1.1-4.2-2.4-1.6-1.3-5-3.6-7.8-5.1-2.7-1.5-6.6-4.2-8.5-6.1-1.9-1.9-4-3.4-4.5-3.4-0.5 0-5.7-4.2-11.5-9.5-8.8-8-10.7-10.4-13.5-19l-0.3 5.5c-0.2 3-0.9 6.1-1.5 6.8-0.7 0.7-3 1.3-5.2 1.2-2.9 0-5.5-1-9.2-3.5-3.5-2.3-5.3-4.2-5.3-5.5 0-1.2 0.7-2 1.8-2 0.9 0 3.7 1.4 6.2 3 2.5 1.6 5.3 3 6.3 3 1.6 0 1.7-1.5 1.7-18.8-0.1-15.8 0.2-18.9 1.5-20.2 1.1-1.1 1.6-3.3 1.5-8 0-3.6 0.8-10.6 1.8-15.5 1-4.9 2.1-9.4 2.5-10 0.3-0.6 1.1-5.3 1.6-10.5 0.6-5.2 1.5-9.7 2-10 0.4-0.3 1.4-3.6 2-7.5 0.7-3.9 1.5-9.5 1.8-12.5 0.3-3.2 1.1-5.8 1.9-6.3 0.8-0.4 1.4-1.6 1.4-2.7 0-1.1 0.5-2.9 1-4 0.5-1.1 0.8-2 0.5-2-0.3 0-1.1 1.5-1.9 3.3-0.8 1.7-2.9 5.4-4.7 8.2-1.9 2.7-6.1 7.9-9.4 11.5-3.3 3.5-8.8 9.3-12.2 12.7-3.5 3.5-8 7-10 7.9-2.1 0.9-4.4 2.5-5 3.5-0.7 1.1-1.9 1.9-2.5 1.9-0.7 0-2.7 1.3-4.3 3-1.6 1.7-3.8 3-4.7 3-1 0-4.8 1.4-8.5 3-3.8 1.7-7.1 3-7.5 3-0.5 0-4.3 1.6-16.3 7.3l-25.5-0.7c-23.3-0.5-25.7-0.4-28 1.2-1.4 0.9-3.5 2.3-4.8 3-1.2 0.6-3.8 1.2-5.7 1.2-2.2 0-5.1-1.1-7.7-2.9-2.4-1.5-6.1-3.9-8.3-5.3-2.2-1.4-5.6-3.2-7.5-4.1-1.9-0.9-6.2-3.7-9.5-6.2-3.3-2.5-9-6.8-12.7-9.5-3.8-2.8-7.1-5-7.5-5-0.5 0-3-1.2-5.8-2.6-2.7-1.4-5.7-3.1-6.5-3.8-0.8-0.7-2.9-1.8-4.5-2.4-1.6-0.6-3.9-2.1-5-3.2-1.1-1.1-3-2.1-4.2-2-1.3 0-2.7-0.9-3.3-2-0.6-1.1-1.7-2-2.5-2-0.8 0-3.4-1.4-5.7-3-2.4-1.7-5-3.1-5.8-3.1-0.8 0-3-1.5-4.7-3.4-1.8-1.9-4-3.5-4.8-3.5-0.8 0-2.2-1.4-3-3-0.8-1.6-2.2-3-3-3-0.8 0-2.2-1-2.9-2.2-0.8-1.3-2.9-3.1-4.5-4-1.7-1-3.1-1.5-3.1-1 0 0.4 1.5 3 3.3 5.7 1.9 2.8 4.4 7.5 5.8 10.5 2.1 5 2.4 7 2.5 20.5 0.1 8.3 0.4 16.2 0.8 17.8 0.3 1.5 0.2 2.9-0.4 3.2-0.6 0.3-0.6 1-0.1 1.8 0.4 0.6 1.3 2.8 2 4.7 0.7 2.3 1.1 14.2 1.2 33.5 0 23.7-0.2 30.3-1.3 31.4-0.7 0.7-1.9 1-2.5 0.7-0.7-0.3-1.3-1.6-1.3-2.8 0.1-2.1-0.1-2.1-1.5-0.8-0.9 0.8-1.6 2.3-1.5 3.3 0 0.9-1 2.4-2.2 3.3-1.3 0.8-3.1 2.8-4 4.5-1 1.6-2.4 2.9-3 2.9-0.7 0-2.4 1-3.7 2.3-1.3 1.2-3.3 2.8-4.5 3.4-1.1 0.7-3.6 1.9-5.3 2.8-1.8 0.8-3.5 2-3.8 2.5-0.3 0.5-1.5 1-2.7 1-1.3 0-4.3 0.8-6.8 1.9-2.5 1.2-5.6 2.1-7 2.1-1.4 0-5.3 1.1-8.7 2.5-3.5 1.4-8.3 2.5-10.8 2.5-2.5 0-7.5 0.9-11.2 1.9-3.8 1.1-10.9 3.4-15.8 5.1-4.9 1.8-9.4 3.5-10 4-0.6 0.4-3.9 1.1-7.5 1.5-3.6 0.4-8.1 1.4-10 2.3-1.9 0.8-5.7 2.5-8.5 3.7-2.7 1.3-8.4 3.7-12.5 5.4-5.7 2.4-9 3.1-13.5 3.1-3.3 0-7.6 0.6-9.5 1.4-1.9 0.8-6.1 1.8-9.4 2.3-3.2 0.4-6 1.1-6.2 1.6-0.2 0.4-2.9 0.7-5.9 0.7-3 0-5.7-0.5-6-1-0.3-0.5-3.8-1-7.7-1-4.7 0-7.8 0.5-8.8 1.4-0.8 0.7-3.7 2.1-6.5 3.2-2.7 1-6.1 2.6-7.5 3.6-1.5 1.2-4.1 1.9-6.7 1.8-3 0-4.2-0.4-3.8-1.2 0.2-0.7 1.5-1.6 2.7-2 1.3-0.4 3.4-1.8 4.8-3.1 1.4-1.3 5.1-3.3 8.3-4.3 3.1-1 6-2.5 6.2-3.1 0.4-0.9 3.5-1.3 11-1.3 6 0 10.7 0.4 11 1 0.3 0.5 1.8 1 3.5 1 1.7 0 3.2-0.3 3.4-0.7 0.2-0.5 3-1.2 6.2-1.6 3.3-0.5 7.5-1.5 9.4-2.3 1.9-0.8 6.2-1.4 9.5-1.4 4.8 0 7.9-0.8 15.5-4 5.2-2.2 10.8-4.6 12.5-5.4 1.7-0.7 4.6-2 6.5-2.8 1.9-0.9 6.2-1.9 9.5-2.2 3.3-0.4 7-1.3 8.3-1.9 1.2-0.7 2.2-2 2.2-2.9 0-1.5 1-1.9 5.3-2.1 2.8-0.2 6.6-0.9 8.2-1.5 1.6-0.6 5.3-1.7 8-2.6 2.8-0.9 7.9-1.6 11.5-1.6 4.6 0 8.3-0.8 12.5-2.5 3.3-1.4 7.1-2.5 8.5-2.5 1.4 0 4.5-0.9 7-2.1 2.5-1.1 5.5-1.9 6.8-1.9 1.2 0 2.2-0.3 2.2-0.7 0-0.5 1.6-1.6 3.7-2.6 2.1-0.9 4.8-2.3 6-3 1.2-0.6 2.9-2.2 3.7-3.4 0.9-1.3 2.3-2.3 3.1-2.3 0.8 0 2.4-1.6 3.5-3.5 1.1-1.9 2.4-3.5 3-3.5 0.6 0 1-0.9 1-2 0-1.1 0.6-2.3 1.3-2.7 0.7-0.5 2.4-2.8 3.6-5.3 2.3-4.3 2.4-5.7 2.7-27.2 0.4-22 0.3-23-1.8-27.5-1.3-2.5-3.2-4.9-4.3-5.3-1.1-0.4-3.7-2.7-5.8-5.1-2.1-2.4-4.6-5.3-5.7-6.4-1-1.1-3-3.6-4.4-5.5-1.4-1.9-3.3-5-4.3-6.9-1-1.8-2.6-3.8-3.5-4.2-1-0.5-1.8-1.8-1.8-2.9 0-1.1-0.4-2.2-1-2.5-0.6-0.3-0.8-7 0-36.5l-3.2-3.2c-1.8-1.7-5.7-4.6-8.5-6.5-2.9-1.8-5.5-3.7-5.8-4.3-0.3-0.6-1.6-1.4-3-2-1.5-0.6-2.5-1.8-2.5-3 0-1.1-0.4-2.2-1-2.5-0.6-0.3-1.9-2.4-3-4.7-1.2-2.4-3.2-6.3-4.5-8.8-1.3-2.5-2.4-5.2-2.5-6 0-0.8-0.9-3.3-2-5.5-1.1-2.2-1.9-5-2-6.2 0-1.3-0.5-2.6-1.1-3-0.7-0.5-0.9-2.1-0.5-4 0.3-1.9 0.2-3.5-0.4-3.8-0.6-0.3-1-2.7-1-5.5 0-2.7-0.4-5.8-0.9-6.7-0.5-1-1.6-4.3-2.6-7.3-1-3-1.5-6.1-1.1-6.7 0.3-0.7-0.1-1.9-0.9-2.5-0.9-0.7-1.6-2.1-1.5-3 0-1-0.4-2-1-2.3-0.6-0.3-0.9-7.5-0.7-19.3 0.1-14.1-0.1-19.2-1.1-20.3-0.7-0.8-1.6-5.1-2-9.7-0.6-6.8-1.1-8.8-3-10.5-1.2-1.2-2.3-2.9-2.3-3.7 0-0.8-1.1-3-2.4-4.7-1.4-1.8-2.8-4.8-3.1-6.5-0.4-1.8-1.3-4-2-4.8-1-1-1.2-2.8-0.8-5.5 0.5-3.1 0.3-4.2-1-4.7-0.9-0.5-1.6-1.7-1.6-2.8 0-1.1 0.9-3.8 2-6 1.1-2.2 1.8-4.6 1.7-5.2-0.2-0.7-2.6 2.1-5.3 6.2-2.7 4.1-6.5 9.1-8.4 11-2 1.9-6.3 5.7-9.6 8.3-3.2 2.7-7 5.4-8.4 6.2-1.4 0.7-4.5 2.1-7 3.1-2.5 1-6.2 3.4-8.3 5.3-3.5 3.3-4.3 3.6-10 3.6-5.1 0-6.2-0.3-6.4-1.7-0.2-1 0.7-2.7 2-3.8 1.2-1 3.1-2 4.2-2 1.1 0 3.7-0.8 5.7-1.8 2.2-1 5-3.7 7.1-6.7 1.9-2.7 5.4-9.3 7.9-14.5 2.5-5.2 4.9-11.7 5.3-14.5 0.3-2.7 1.5-7.9 2.6-11.5 1.1-3.6 2.2-7.2 2.5-8 0.3-0.8 0.5-6 0.4-11.5-0.1-5.5-0.3-10.1-0.6-10.2-0.2-0.2-1.5 0.3-2.9 1-1.3 0.6-4.2 2.4-6.2 3.9-2.1 1.5-6 3.2-8.8 3.9-2.7 0.6-5.9 1.6-7 2.1-1.1 0.5-4.2 0.8-7 0.6-4.3-0.3-5-0.6-5.2-2.5-0.2-1.5 0.2-2.3 1.2-2.3 0.8 0 2.7-0.8 4.3-1.9 1.5-1 4.4-2.3 6.5-3 3.2-0.9 4.1-1.9 6.4-6.8 1.4-3.2 3.8-7.6 5.3-9.8 1.4-2.2 3.8-6.5 5.3-9.5 1.5-3 2.7-6 2.7-6.5 0-0.5 1.1-3.1 2.5-5.7 1.4-2.7 2.5-5 2.5-5.3 0-0.3-7.8-0.5-17.2-0.5-13.8 0-17.7 0.4-19 1.5-1 0.8-2.2 1.3-2.8 1-0.6-0.3-1-1.5-1-2.7 0-1.3 2-4.7 4.3-7.6 2.3-2.9 4.5-5.3 5-5.2 0.4 0 1.7-1.8 3-3.9 1.2-2.1 3.9-5.7 6-8 2-2.3 3.7-4.4 3.7-4.8 0-0.5 2.2-2.9 5-5.5 3.2-3.1 6.3-5.1 8.6-5.5 2-0.5 3.8-1.1 4-1.5 0.2-0.5 4.6-0.9 18.9-1.2l-9.5-0.5c-5.2-0.3-10.5-1.2-11.7-1.8-1.3-0.7-3.8-1.3-5.5-1.3-1.8-0.1-5.3-0.6-7.8-1.3-2.5-0.7-5.7-1.9-7-2.8-1.4-0.8-5.9-3.2-10-5.2-7.3-3.6-7.8-3.7-20-4-12.5-0.2-12.5-0.2-12.5-2.6 0-2 0.8-2.6 5-3.8 2.8-0.8 5.4-1.9 5.9-2.4 0.6-0.5 1.9-0.9 3-0.9 1.2 0 4.2-1.3 6.9-3 2.6-1.6 5.5-3 6.5-3 0.9 0 4.4-1.4 7.7-3.1 5.8-3 6.6-3.1 21.5-3.5 13.8-0.4 15.7-0.7 17.5-2.5 2-2 2-2-0.7-1.9-1.6 0-3-0.4-3.3-1-0.3-0.6-5.1-1-11.2-1-7.4 0-11.2-0.4-12.1-1.2-0.7-0.7-1.2-2.1-1.2-3 0-1 0.7-1.8 1.5-1.8 0.8 0 1.5-0.4 1.5-1 0-0.5 1.7-1.3 3.8-1.6 2.1-0.4 4.2-1.1 4.6-1.5 0.4-0.5 3.7-0.9 14.1-0.9z"/>
		<path id="Path 4" class="s4" d="m342.1 398.7c1.7 1 3.7 2.8 4.5 4.1 0.7 1.2 2.1 2.2 2.9 2.2 0.8 0 2.2 1.4 3 3 0.8 1.6 2.2 3 3 3 0.8 0 3 1.6 4.7 3.5 1.8 1.9 4 3.4 4.8 3.4 0.8 0 3.4 1.4 5.7 3.1 2.4 1.6 5 3 5.8 3 0.8 0 1.9 0.9 2.5 2 0.6 1.1 2 2 3.2 2 1.3-0.1 3.2 0.9 4.3 2 1.1 1.1 3.4 2.6 5 3.2 1.6 0.6 3.7 1.7 4.5 2.4 0.8 0.7 3.7 2.4 6.5 3.8 2.7 1.4 5.3 2.6 5.7 2.6 0.5 0 3.8 2.2 7.5 5 3.8 2.7 9.5 7 12.8 9.5 3.3 2.5 7.6 5.3 9.5 6.2 1.9 0.9 5.3 2.7 7.5 4.1 2.2 1.4 5.9 3.8 8.2 5.3 2.7 1.8 5.6 2.9 7.8 2.9 1.9 0 4.5-0.6 5.7-1.2 1.3-0.7 3.4-2.1 4.8-3 2.3-1.6 4.7-1.7 53.5-0.5l7.7-3.7c4.3-2 8.1-3.6 8.5-3.6 0.5 0 3.8-1.3 7.5-3 3.8-1.6 7.6-3 8.5-3 1 0 3.1-1.3 4.8-3 1.6-1.7 3.6-3 4.2-3 0.7 0 1.9-0.8 2.5-1.9 0.7-1 3-2.6 5-3.5 2.1-0.9 6.6-4.4 10-7.9 3.5-3.4 9.2-9.4 12.7-13.2 3.6-3.9 7.4-8.6 10.6-14l0.3 5c0.2 2.8-0.2 6.1-0.7 7.5-0.5 1.4-1.3 5-1.7 8-0.3 3-1 5.7-1.5 6-0.5 0.3-1.4 4.8-2 10-0.5 5.2-1.3 10-1.6 10.5-0.4 0.6-1.5 5.1-2.5 10-1 5-1.8 11.9-1.8 15.5 0.1 4.7-0.4 6.9-1.5 8-1.3 1.3-1.6 4.4-1.5 20.3 0 17.2-0.1 18.7-1.8 18.7-0.9 0-3.7-1.4-6.2-3-2.5-1.6-5.3-3-6.3-3-1 0-1.7 0.8-1.7 2 0 1.3 1.8 3.2 5.2 5.5 3.8 2.5 6.4 3.5 9.3 3.5 2.2 0.1 4.5-0.5 5.2-1.2 0.6-0.7 1.3-3.8 1.8-12.3l1.5 4.7c1.3 3.9 3.2 6.3 12 14.3 5.8 5.3 11 9.5 11.5 9.5 0.5 0 2.6 1.5 4.5 3.4 1.9 1.9 5.7 4.6 8.5 6.1 2.7 1.5 6.2 3.8 7.7 5.1 1.6 1.3 3.5 2.4 4.3 2.4 0.8 0 2.5 0.6 3.7 1.3 1.3 0.6 2.6 1.8 3 2.5 0.5 0.6 1.9 1.2 3.3 1.2 1.4 0 3.9 1.1 5.5 2.5 1.6 1.4 3.8 2.5 4.7 2.5 1 0 2.5 0.7 3.3 1.5 1 1 4.8 1.8 10.8 2.3 5.6 0.4 9.9 1.2 10.5 2 0.9 0.9 5 1.3 15.4 1.2 8.6 0 14.5 0.4 14.8 1 0.3 0.5 1.8 1 3.5 1 1.6 0 4.3 0.8 6 1.8 1.6 0.9 3.2 2.5 3.5 3.5 0.3 0.9 1.3 1.7 2.3 1.7 1 0 2.2-0.5 2.8-1q0.9-1.1 2.9 1c1.1 1.1 2.6 2.1 3.2 2 0.7 0 2.5 0.6 4 1.4 1.6 0.8 4.4 1.9 6.3 2.4 2.3 0.7-104 1-604 1.2l1.5-2.2c0.8-1.3 1.5-3.1 1.5-4 0-1.5 0.9-1.8 6-1.8 3.3 0 6.2-0.3 6.4-0.7 0.2-0.5 3-1.2 6.2-1.6 3.3-0.5 7.5-1.5 9.4-2.3 1.9-0.8 6.2-1.4 9.5-1.4 4.5 0 7.8-0.7 13.5-3.1 4.1-1.7 9.7-4.1 12.5-5.4 2.7-1.2 6.6-2.9 8.5-3.7 1.9-0.9 6.4-1.9 10-2.3 3.6-0.4 6.9-1.1 7.5-1.5 0.5-0.5 5-2.2 10-4 4.9-1.7 12-4 15.7-5.1 3.8-1 8.8-1.9 11.3-1.9 2.5 0 7.3-1.1 10.7-2.5 3.5-1.4 7.4-2.5 8.8-2.5 1.4 0 4.5-0.9 7-2.1 2.5-1.1 5.5-1.9 6.7-1.9 1.3 0 2.5-0.5 2.8-1 0.3-0.5 2-1.7 3.7-2.5 1.8-0.9 4.3-2.1 5.4-2.8 1.2-0.6 3.2-2.2 4.5-3.4 1.3-1.3 3-2.3 3.6-2.3 0.7 0 2.1-1.3 3-2.9 1-1.7 2.8-3.7 4-4.5 1.3-0.9 2.3-2.4 2.3-3.3-0.1-1 0.6-2.5 1.5-3.3 1.4-1.3 1.6-1.3 1.5 0.8 0 1.2 0.6 2.5 1.2 2.8 0.7 0.3 1.9 0 2.6-0.7 1.1-1.1 1.3-7.7 1.3-31.4-0.1-19.3-0.5-31.2-1.2-33.5-0.7-1.9-1.6-4.1-2-4.7-0.5-0.8-0.5-1.5 0.1-1.8 0.6-0.3 0.7-1.7 0.4-3.2-0.4-1.6-0.7-9.5-0.8-17.8-0.1-13.5-0.4-15.5-2.5-20.5-1.4-3-3.9-7.7-5.8-10.5-1.8-2.7-3.2-5.4-3.2-5.8 0.1-0.5 1.4 0 3 1z"/>
		<path id="Path 5" class="s5" d="m140.5 592.1c0.1-0.1 0.1 0.7 0.1 1.6 0 1 0.3 2.8 0.7 4 0.7 2.3 0.6 2.3-8.1 2.3-8.6 0-8.7 0-6.2-1.7 1.4-1 5-2.8 8-4 3-1.2 5.5-2.2 5.5-2.2z"/>
		<path id="Path 6" class="s0" d="m116.3 17.1c1.5 0 3 0.5 3.4 1.1 0.3 0.8-0.4 2.1-1.8 3.1-1.3 1-3.1 1.8-3.9 1.7-0.8 0-4 1.3-7 3-3 1.6-6.6 3-8 3-1.5 0-3 0.5-3.5 1.1-0.6 0.6-1.6 0.8-2.2 0.5-0.7-0.3-1.3-1.4-1.3-2.4 0-0.9 0.5-2.3 1.2-3 0.7-0.6 2.1-1.2 3.2-1.2 1.2 0 4.2-0.9 6.9-2 2.6-1.1 4.7-2.5 4.7-3 0-0.6 1.2-1.2 2.8-1.4 1.5-0.1 3.9-0.4 5.5-0.5zm-34.2 42.7l12.2 0.5c6.7 0.4 15.1 1.1 18.7 1.6 3.6 0.6 7 1.5 7.5 2.1q1 1-0.5 2.5c-1.3 1.3-2.7 1.3-9.5 0.4-4.4-0.7-12.5-1.5-18-1.8-9.6-0.6-10-0.7-10.2-3zm-18.6 41.3c1.6 0 4 1.5 6.8 4.3 2.3 2.4 8.1 6.7 13 9.5 4.8 2.8 9 5.2 9.5 5.2 0.4 0 1.7 1 3 2.2 2 2 2.3 2 2.2 0.5 0-1.2 0.7-1.7 2.3-1.5 1.7 0.2 2.3 1 2.5 3.3 0.2 1.8-0.4 3.7-1.5 4.8-1 0.9-2.6 1.7-3.5 1.7-1 0-2.8-1.4-4-3-1.3-1.7-2.7-3.1-3.3-3-0.5 0-2.6-1.1-4.5-2.4-1.9-1.3-5.8-3.7-8.6-5.3-2.8-1.5-7.7-5.2-10.8-8.1-3.1-2.9-5.6-5.9-5.6-6.7 0-1 0.9-1.5 2.5-1.5zm-36.5 42c1.4 0 2.7 1.5 4.5 5.2 2.5 5.1 2.5 5.9 2.6 26.8 0 18.1 0.2 21.6 1.5 22.5 1.2 0.8 1.3 1.5 0.5 3.7-0.6 1.5-1.8 3-2.6 3.3-0.8 0.2-2.2-0.1-3-0.8-1.4-1-1.6-4.7-1.5-25 0-21.8-0.2-24.1-2-27.7-1.1-2.2-2-4.9-2-6q0-2 2-2zm404 24.5c3.4 3.3 7.2 7.5 8.5 9.5 1.3 1.9 5.1 5.6 8.4 8.2 3.4 2.6 6.1 5.4 6.1 6.3 0 0.8 0.7 1.8 1.6 2.2 1.3 0.6 1.4 1.2 0.5 3-0.6 1.3-1.1 3.4-1.1 4.8 0 2.3-0.2 2.2-3.9-1.8-2.1-2.3-4.9-5.9-6.2-7.8-1.3-2-4.2-6.3-6.5-9.5-2.3-3.3-4.9-6.6-5.8-7.4-0.9-0.9-1.7-2.1-1.6-2.8 0-0.7-1.3-2.7-3-4.5-1.6-1.8-2.9-3.9-3-4.7 0-0.9 2.7 1.2 6 4.5zm116.3-5l1.2 3c1 2.4 2.1 3.1 5.6 3.8 2.4 0.5 5 1.6 5.7 2.5 0.7 0.9 2.4 3.9 3.7 6.7 2.3 4.5 2.5 5.9 2.1 14-0.2 4.9-1 11.8-1.7 15.3-0.8 3.4-2 6.6-2.8 7-0.7 0.4-1.2 1.8-1 3.4 0.4 2.6 0.2 2.7-5.5 3.5-3.2 0.4-6 1.1-6.2 1.5-0.2 0.4-3.7 0.8-7.6 0.8-5.4 0.1-7.7-0.3-8.8-1.5-0.8-0.9-2.5-1.6-3.7-1.6-1.3 0.1-2.3-0.4-2.3-0.9 0-0.6-1.1-1.5-2.5-2-1.4-0.6-2.9-2.2-3.5-3.5-0.5-1.4-1.4-2.5-2-2.5-0.5 0-1-2.1-1-4.5 0-2.5-0.3-4.7-0.7-5-0.5-0.2 2.2-3.7 6-7.7 3.7-4 6.7-8 6.7-8.8 0-0.9 2.7-4.2 6-7.5 3.3-3.3 7.4-8.3 9.2-11zm-155.2 22.2c0.8 0.7 2.1 1.3 3.1 1.3 0.9 0 2.7 1.1 4 2.5 1.2 1.4 4.7 3.4 7.8 4.5 3 1.1 7 3.5 9 5.4 3 2.9 4.7 3.6 12.5 5.1 4.9 0.9 11.2 1.5 14 1.3 2.7-0.2 5.5 0 6.2 0.4 0.7 0.4 1.9 0.5 2.8 0.3 1-0.4 1.5 0.3 1.7 2 0.1 1.3 0 2.4-0.2 2.4-0.3 0-1.3 1.8-2.3 4-1.2 2.8-2.4 4.1-3.7 4.1-1.1 0-2 0.5-2 1.2 0 0.7-1.5 1.6-3.3 2-1.8 0.5-4.3 0.8-5.5 0.8-1.2 0-2.4 0.5-2.5 1.1-0.1 0.7-3 1.4-7.2 1.6-3.9 0.3-7.5 0.9-8 1.4-0.5 0.5-2.4 0.9-4.2 0.9-1.9 0-3.3-0.5-3.3-1 0-0.6-1.7-1.8-3.8-2.8-2.9-1.4-4.4-3.2-6.7-7.9-1.7-3.3-4.4-7.9-6-10.3-2.7-3.9-3.1-5.3-3.4-12.9-0.3-7.2-0.1-8.4 1-7.4z"/>
		<path id="Path 7" fill-rule="evenodd" class="s1" d="m672.3 266.1c0.4-0.1 0.7 3.3 0.7 7.4 0 5.7-0.5 8.4-2 11-1.2 2.1-2.3 6.5-2.7 11.1-0.5 4.2-1 7.8-1.3 7.9-0.3 0.2-0.3 4.5-0.1 9.7 0.1 5.1-0.1 10.2-0.7 11.3-0.5 1.1-1.6 4-2.3 6.5-0.7 2.5-1.8 5.2-2.4 6-0.6 0.8-1.6 2.6-2.3 4-0.7 1.4-3.3 4.6-5.7 7.2-2.5 2.7-4.5 5-4.5 5.3 0 0.3-0.9 1.3-2.1 2.2-1.2 1.1-2.2 3.5-2.6 6.3-0.3 2.5-1 5.1-1.4 5.7-0.5 0.7-0.8 2.1-0.7 3 0 1-0.4 3-1 4.5-0.7 1.6-1.2 3.5-1.2 4.3 0 0.8-0.5 1.5-1 1.5-0.5 0-1 1.1-1 2.5 0 1.4-0.8 4.1-1.7 6-1 1.9-2.4 3.5-3 3.5-0.7 0-1.8 1.1-2.3 2.5-0.5 1.4-2.3 3.4-4 4.5-1.6 1.1-3.3 3.2-3.6 4.7-0.4 1.6-2.6 5.4-5 8.5q-4.4 5.8-4.4 8.8c0 1.6-0.3 3-0.7 3-0.5 0-0.6-2.4-0.5-5.2 0.2-2.9 1-6 1.7-6.8 0.7-0.8 1.6-2.9 2-4.5 0.4-1.7 0.8-5 0.9-7.5 0.1-2.5 1.5-7.7 3-11.5 1.6-3.9 4.3-9.1 6.2-11.8 1.9-2.6 3.2-5 2.9-5.5-0.2-0.4 1.6-2.7 4.1-5.2 2.4-2.5 4.4-5.1 4.4-5.8 0-0.6 1-2.4 2.3-4 1.2-1.5 2.7-3.6 3.3-4.7 0.6-1.1 2.4-2.7 4-3.6q2.9-1.6 3.3-4.5c0.2-1.6 0.6-17.4 0.7-35.2 0.2-17.7 0.7-32.2 1.2-32.2 0.4 0 4.8-2.4 9.7-5.4 5-3 9.3-5.5 9.8-5.5zm217 14.1c4.9-0.2 6.1 0.2 8.9 2.5 1.7 1.6 3.7 4.3 4.5 6 0.7 1.8 1.3 6.2 1.3 9.8 0 3.6-0.6 7.7-1.4 9.2-0.7 1.6-2.1 3.1-3 3.5-0.9 0.5-3.6 0.8-10.6 0.8l3.4 6.2c1.9 3.5 5.3 8.4 7.5 11 2.8 3.3 3.9 5.4 3.6 6.8-0.3 1.1-1.7 2.6-3.1 3.2-2.5 1.2-2.9 1-8-4.5-3-3.1-6.6-8.1-8.1-11-1.4-2.8-3.6-6-4.7-6.9-1.2-1-2.8-1.7-3.6-1.8-0.8 0-2.1-0.5-2.9-1.2-1.1-1.1-1.3 0-0.9 6.7 0.4 7.3 0.3 8.2-1.8 10.2-1.3 1.3-2.9 2.3-3.6 2.3-0.7 0-2.1-0.8-3.1-1.8-1.6-1.5-1.8-3.9-1.8-23.7 0-21.6 0.1-22 2.3-24.2 1.9-1.8 3.7-2.3 10.8-2.5 4.7-0.2 11.1-0.5 14.3-0.6zm-112.9 11.8c1.1-0.1 2.9 0.7 3.8 1.7 1.3 1.4 1.8 4.5 2.3 13.3 0.3 6.3 0.7 14.6 0.9 18.5 0.2 3.9 1.1 8.7 2 10.7 1.4 3.3 1.6 8.1 1.6 33.5 0 16.4 0.2 29.9 0.5 30 0.3 0.2 1.9-0.4 3.5-1.2 2.5-1.2 8.8-1.5 37.3-1.5 31 0 34.4 0.2 36 1.8 1 0.9 1.8 2.3 1.7 2.9 0 0.7-0.9 2.2-2 3.3-1.9 1.9-3.3 2-35 2-31 0-33.2 0.1-37 2-2.2 1.1-5.7 2-7.7 2-2.3 0.1-4.5-0.6-5.6-1.7-1.6-1.7-1.8-4.4-1.7-35.3 0-31.9-0.1-33.6-2-36.3-1.6-2.1-2-4.3-2-10 0-3.9-0.2-13.1-0.5-20.2-0.3-8.9-0.2-13.4 0.6-14.3 0.6-0.6 2.1-1.2 3.3-1.2zm73.1 25.1c1.1-0.1 2.8 0.6 3.8 1.6 1.2 1.2 1.6 2.6 1.3 4-0.4 1.5-2.2 3-4.8 4.2-2.4 1-6.1 2.4-8.3 3.1-2.2 0.7-6.2 2.7-8.8 4.4-2.6 1.7-4.7 3.4-4.7 3.8 0 0.5 1.5 1.1 3.3 1.4 1.7 0.4 5.2 1.5 7.7 2.6 2.5 1.1 5.2 2.6 6 3.3 0.8 0.7 2.6 1.5 3.9 1.7 1.3 0.1 3.3 1.6 4.5 3.1 1.5 2.1 2.2 4.7 2.5 9.5 0.3 5.7-0.1 7.5-2.3 11.9-1.4 2.9-3.6 6-4.8 6.8-1.4 0.9-4.6 1.5-8.3 1.5-3.3 0-6.4-0.4-7-0.9-0.5-0.5-2.6-1.3-4.5-1.9-1.9-0.6-4.7-2-6.2-3.2-1.6-1.1-2.8-3-2.8-4.3-0.1-1.2 0.6-2.8 1.5-3.5 0.8-0.6 2.5-1 3.8-0.8 1.2 0.2 3.8 1 5.7 1.6 1.9 0.7 4.3 1.7 5.3 2.1 0.9 0.5 2.9 0.9 4.5 0.9 1.9 0 3.1-0.7 4-2.5 0.6-1.4 1.2-4.2 1.2-6.3-0.1-3.1-0.6-4.1-3.5-6-1.9-1.2-4.1-2.2-4.7-2.2-0.7 0.1-1.8-0.5-2.4-1.2-0.7-0.7-2.5-1.6-4-2-1.6-0.3-4.7-1.1-6.9-1.7-2.2-0.6-4.8-1.9-5.8-2.8-1-1.1-1.8-3.2-1.7-5.3 0-1.9 0.9-5 2-6.8 1.1-1.7 3.7-4.3 5.8-5.6 2-1.2 4.3-3 5.1-4 0.8-0.9 2.3-1.6 3.3-1.6 1 0 3.3-0.6 5.1-1.4 1.7-0.7 4.6-1.8 6.2-2.4 1.7-0.5 3.9-1 5-1.1zm87.5 92c9.1-0.1 10.9 0.1 13.3 1.9 1.5 1.1 2.7 2.9 2.7 4 0 1.1-0.3 2.7-0.7 3.6-0.5 0.9-2 2.3-3.5 3-1.6 0.8-3.6 1.4-4.5 1.4-1 0-2.6 0.8-3.7 1.8-1.2 1.2-3.6 1.7-7.5 1.8-4.5 0-8.1 1.1-18.6 5.7-7.1 3.2-13.6 5.7-14.2 5.7-0.7 0-5.9 2.1-11.5 4.6-5.7 2.5-12.7 5.7-15.5 7-2.9 1.3-5.9 2.4-6.5 2.4-0.7 0-3.5 0.9-6.3 1.9-2.7 1-6.6 2.4-8.5 3.1-1.9 0.7-4.6 1.5-6 1.8-1.4 0.3-4.1 1.6-6 2.9-1.9 1.3-4.4 2.4-5.5 2.4-1.1 0-4.2 1.2-11.9 5.4l14 0.5c12.6 0.5 14.6 0.3 21.9-1.8 4.4-1.3 10.3-2.8 13-3.3 2.8-0.4 8.8-1.4 13.5-2 4.7-0.6 15.9-1.3 25-1.6 15.5-0.4 16.7-0.3 19.3 1.6 1.7 1.3 2.7 3 2.7 4.6 0 1.4-0.6 3.7-1.4 5.2-0.7 1.6-2.1 3.1-3 3.5-0.9 0.5-2.3 0.8-3.1 0.8-0.8 0-4.5 2.3-8.2 5-4.5 3.3-8.5 5.4-11.8 6.1-2.7 0.6-6.8 1.7-9 2.4-2.2 0.8-7.6 1.8-12 2.4-4.4 0.6-10.5 1.3-13.5 1.6-3 0.3-6.4 1.2-7.5 1.9-1.6 1.2-1.7 1.5-0.5 1.9 0.8 0.3 2.6 0.8 4 1.1 1.4 0.2 4.6 2.1 7.3 4 4 3.1 4.7 4.1 4.7 7.1 0 1.9-0.9 5.2-2 7.2-1.1 2.1-3.6 6-9 13.8l4 3.5c3.5 3.1 3.9 4 4 8 0 2.5 0.6 5.4 1.3 6.5 0.7 1.1 1.8 3.8 2.5 6 0.6 2.2 1.5 8.5 1.9 14 0.7 9.5 0.9 10.1 3.8 12.7 2.7 2.4 2.9 2.9 1.8 5.2-0.7 1.4-2.2 2.8-3.3 3.1-1.1 0.3-3.5-0.3-5.2-1.3-1.8-1-4-3.4-4.9-5.2-1-2.1-1.9-7.6-2.3-13.5-0.4-5.5-1.2-11.6-1.9-13.5-0.7-1.9-1.7-4.2-2.2-5-0.5-0.8-1.2-3.5-1.5-6-0.5-4.3-0.7-4.6-5.1-6-2.6-0.8-5.9-2.6-7.3-4q-2.7-2.5-2.4-5c0.2-1.5 1.6-3.3 3.8-4.7 1.9-1.2 4.6-3 6-4.1 1.4-1.1 3.9-3.8 5.5-6.2 3-4.2 3-4.2 1-5.6-1.1-0.8-3-1.4-4.2-1.4-1.3 0-4.2-1.8-6.8-4.3-3.2-2.9-4.6-5-4.5-6.7 0-1.4 0.4-3.6 0.8-4.9 0.4-1.3 2.5-3.6 4.7-5.1 3-2 5.8-2.9 11-3.4 3.9-0.4 10.6-1.1 15-1.7 4.4-0.6 9.6-1.7 11.5-2.5 1.9-0.7 5.3-1.6 7.5-2 2.2-0.4 6-2.2 13-7.5l-8.7 0.1c-4.9 0-9.8 0.4-11 0.9-1.3 0.5-7.2 1.4-13.3 1.9-6 0.6-12.8 1.7-15 2.5-2.2 0.8-5.8 2-8 2.7-2.9 1-9.5 1.3-24 1.1-15.5-0.2-20.3-0.6-21.5-1.6-0.8-0.8-2.3-1.5-3.2-1.5-1 0-2.7-1.2-3.8-2.8-1.2-1.5-2.1-3.6-2.1-4.7 0-1.1 0.8-2.8 1.8-3.7 1-0.9 3.8-2.1 6.3-2.7 2.5-0.6 5.4-2 6.5-3.1 1.1-1.2 2.6-2.1 3.3-2 0.6 0 3-0.9 5.2-2 2.2-1.1 4.7-2 5.5-2 0.8 0 2.7-0.9 4.3-2 1.5-1.1 4.3-2.5 6.2-3 1.9-0.5 5.6-1.5 8.1-2.2 2.5-0.7 5.2-1.8 6-2.4 0.8-0.6 3.9-1.6 6.9-2.3 3-0.7 6.6-2.1 8-3.2 1.4-1.1 3.2-1.9 4-1.9 0.8 0 5-1.5 9.3-3.5 4.2-1.9 7.9-4 8.2-4.5 0.3-0.6 2-1 3.8-1.1 1.7 0 5.5-1.1 13.2-4.7l-5-0.1c-2.7-0.1-6.7 0.5-8.7 1.4-2.1 0.8-6 1.5-8.8 1.5-2.7 0-6.9 0.8-9.2 1.8-2.4 1-14.2 3.8-26.3 6.1-12.1 2.4-26.3 5.2-31.5 6.3-5.2 1-11.3 2.4-13.5 2.9-2.2 0.6-5.3 1.4-7 2-1.6 0.5-4.1 0.9-5.5 0.9-1.4 0-3.3-0.8-4.3-1.8-1-0.9-1.8-2.6-1.7-3.7 0-1.1 0.5-2.6 1.2-3.3 0.7-0.6 2.5-1.2 4-1.2 1.5 0 3-0.5 3.3-1 0.3-0.6 2.2-1.2 4.3-1.4 2-0.3 6-0.9 8.7-1.5 2.8-0.5 8.6-1.7 13-2.6 4.4-0.9 17.2-3.5 28.5-5.7 11.3-2.2 22.5-4.9 25-5.9 2.6-1.1 6.8-2 10-2 3 0 6.6-0.6 8-1.4 1.4-0.8 5.3-1.5 9-1.5 3.6 0 8.3-0.5 10.5-1.1 2.2-0.6 5.8-1.4 8-1.9 2.2-0.4 8.7-0.8 14.5-0.9z"/>
		<path id="Path 8" class="s3" d="m491.8 95.1c2.8 0 5.4 0.4 5.7 0.9 0.3 0.6-0.1 1.7-0.8 2.5-0.8 1-4 1.7-9.7 2.1-4.8 0.4-9.6 1.3-11 2.2-1.4 0.8-3.3 1.2-4.3 0.8-0.9-0.3-1.7-1.4-1.7-2.3 0-1.1 1.4-2.4 3.2-3.3 1.8-0.8 5.5-1.7 8.3-2.1 2.7-0.3 7.4-0.7 10.2-0.8zm-92.3 381.1c1.5 0.2 2.1 1 1.9 2.8 0 1.4 0.8 6.5 1.9 11.5 1 4.9 3.2 11.7 4.9 15 1.6 3.3 2.9 7 2.9 8.2 0 1.3 1.3 3.8 2.9 5.5 1.6 1.8 3.6 4.9 4.4 6.8 0.8 1.9 2.2 4.2 3.2 5 0.9 0.8 2.4 3.1 3.3 5 1 1.9 3.8 5.5 6.4 8 2.6 2.5 7 6.5 9.9 9 2.8 2.5 7.1 5.6 9.5 7 2.3 1.4 7.1 5 10.6 8.2 3.5 3.1 7.9 7 9.8 8.6 3.3 2.9 3.4 3.2 1.8 4.9-1.6 1.7-1.8 1.7-6-1.6-2.4-1.9-6.8-5.8-9.8-8.6-3-2.9-7.1-6-9-7-1.9-1-7.3-5.1-12-9.1-4.7-3.9-9.4-8.2-10.6-9.5-1.1-1.3-3.7-4.8-5.7-7.7-2-2.8-4.8-7.5-6.2-10.2-1.4-2.8-3.4-5.5-4.5-6-1.3-0.6-2.2-2.4-2.6-4.8-0.3-2-1.7-6.2-3.1-9.2-1.5-3-3.7-9.8-5-15-1.2-5.2-2.3-10.5-2.3-11.8 0-1.2 0.3-2.9 0.7-3.8 0.3-0.8 1.5-1.4 2.7-1.2zm158.9 0c1.6 0.2 2.3 1.1 2.5 3.3 0.1 1.8-0.6 4.5-1.9 6.5-1.6 2.7-2.3 6-3 14-0.7 9.1-1.3 11.7-4.8 19.5-2.2 5-4.9 9.8-6.1 10.7-1.1 1-2 2-2 2.3 0 0.3-1.4 2.5-3 5-2.4 3.5-3.6 4.5-5.8 4.5-1.5-0.1-3.6 0.9-4.7 2-1.1 1.1-3.4 2.6-5 3.2-1.6 0.6-5 2.6-7.5 4.4-2.5 1.8-7.4 4.2-11 5.5-3.6 1.2-7.7 3-9.3 4-1.5 1.1-3.2 1.7-3.7 1.4-0.6-0.3-1-1.4-1-2.5 0-1.1 1.2-2.8 2.7-3.8 1.6-1.1 3.7-2.2 4.8-2.5 1.1-0.3 4-1.3 6.5-2.2 2.5-0.9 6.5-3.1 9-4.9 2.5-1.8 5.9-3.8 7.5-4.4 1.6-0.6 3.9-2.1 5-3.2 1.1-1.1 3-2.1 4.2-2 1.4 0 3-1.1 4-2.8 1-1.5 2.4-3.9 3-5.5 0.7-1.5 1.9-2.7 2.5-2.7 0.7 0 3-4 5.1-8.8 3.3-7.4 3.9-10.2 4.6-19.2 0.6-8 1.3-11.3 3-14 1.1-1.9 2.1-4.5 2.2-5.8 0-1.8 0.6-2.3 2.2-2zm-71.3 15.8c1.1 0 2.2 0.4 2.3 1 0.2 0.5 1.1 1 2 1 1 0 4.4 1.4 7.7 3 3.3 1.6 6.8 3 7.9 3 1 0 2.8 0.8 4 1.7 1.7 1.4 2.2 2.9 2.1 6.5 0 4.3-0.4 5.1-3.6 7.5-2 1.6-5.3 4.6-11.4 10.8l-11.2 0.4c-9.6 0.3-11.8 0-14.8-1.5-1.9-1.1-5.3-2.1-7.5-2.4-3.2-0.4-4-0.9-4.3-2.8-0.2-2 0.2-2.2 4.8-2.2 3.2 0 6.1 0.7 8.2 2 2.6 1.6 5 2 11.3 2 4.4 0 8.9-0.3 10-0.6 1.1-0.2 2.4-1.4 3-2.5 0.5-1.2 2.3-2.8 4-3.8 1.6-0.9 3.5-2.1 4.1-2.6 0.6-0.5 1.3-2.3 1.5-4 0.3-2.3 0-3-1.6-3.3-1.1-0.2-4.7-1.6-8-3.2-3.3-1.6-6.9-3-8-3-1.1 0-2.6-0.5-3.3-1.2-0.7-0.7-1.2-2.3-1.2-3.6 0-1.5 0.6-2.2 2-2.2zm70.3 56.2c2.8 0.2 4.2 0.8 4.2 1.7 0 0.8-0.7 1.7-1.5 2.2-0.8 0.4-2.2 1-3 1.3-0.8 0.4-3.3 1.7-5.5 3-2.2 1.3-4.6 3.5-5.3 5-0.6 1.4-3 4.4-5.2 6.6-2.2 2.2-4.6 3.9-5.3 3.7-0.6-0.2-1.3-1.3-1.5-2.5-0.1-1.2 0.5-2.4 1.3-2.7 0.8-0.3 1.5-1.6 1.5-3q0-2.5 2-3c1.1-0.3 2.4-1.5 2.9-2.8 0.4-1.2 3.1-3.4 6-5 2.8-1.5 5.1-3.2 5.2-3.8 0-0.6 1.8-0.9 4.2-0.7zm-142.8 2.8c1.7 0 3.4 1.2 5.2 3.7 1.6 2.1 4.7 5.6 7 7.8 2.3 2.2 4.5 5.4 4.9 7 0.4 1.6 1.6 4.1 2.6 5.5 1.3 1.7 1.9 4.1 1.8 7.5 0 2.8 0.5 5.6 1.2 6.3 1.1 1 1 1.6-0.4 3-1.7 1.6-1.8 1.6-3.8-0.3-1.6-1.5-2-3.2-2-7 0-3.4-0.5-5.8-1.8-7.5-1-1.4-2.2-3.8-2.7-5.3-0.4-1.6-2.8-5-5.4-7.6-2.5-2.6-5.6-6-6.9-7.4-1.2-1.5-2.2-3.4-2.2-4.2 0-0.9 0.9-1.5 2.5-1.5z"/>
		<path id="Path 9" class="s4" d="m593.5 106l0.8 5.7c0.4 3.2 1.9 8.8 3.2 12.6 1.4 3.7 2.5 7.3 2.5 8 0 0.8-2.5 1.5-7.2 2-4 0.4-7.7 1.2-8.3 1.7-0.5 0.6-2.3 1-4 1-1.6 0-4.7 0.6-6.7 1.5-2.1 0.8-4.8 1.5-6 1.5-1.3 0-4 0.9-6 2-2.1 1.1-4.7 2-5.8 2q-2 0-5.5 5.5c-1.9 3-4 5.5-4.5 5.5-0.5 0-1.6 1.2-2.3 2.8-0.7 1.5-2.7 5.1-4.5 8-1.7 2.8-3.9 5.2-4.7 5.2-0.8 0-1.7 0.9-2 2-0.3 1.1-2.3 3.5-4.5 5.3-2.4 1.9-3.9 4.1-4 5.5 0 1.2-0.5 2.2-1 2.2-0.5 0-2.6 2.3-4.5 5-2.3 3.3-4.7 5.4-7 6.3-1.9 0.6-3.5 1.8-3.5 2.5 0 0.6 0.9 2.4 2 4 1.2 1.5 2.1 4.2 2 6 0 1.7 1 4.7 2.3 6.5 1.2 1.8 3.8 4.7 5.7 6.4 1.9 1.7 4.9 3.3 6.5 3.6 1.8 0.2 0.7 0.5-2.7 0.6-4.4 0.1-5.9-0.3-6.3-1.4-0.3-0.8-1.6-1.5-3-1.5-1.7 0-2.5 0.6-2.5 1.8 0 0.9 1 2.7 4.5 6.2l30.5-0.5c16.8-0.2 37.1-0.7 45.3-1 11.6-0.4 15-0.8 16-2q1.2-1.6 0.2-2.6c-0.6-0.6-7.1-0.7-16.5-0.4-8.5 0.2-19.8 0.6-25 0.8-5.2 0.2-6.8 0.2-3.5 0 3.3-0.2 6.4-0.8 6.9-1.4 0.6-0.5 2-0.9 3.3-0.9 1.3 0 4.2-1.3 6.6-2.9 2.3-1.6 7.2-6.8 11-11.5 3.7-4.7 6.7-9.2 6.7-9.8 0-0.7 0.6-2 1.4-2.8 0.7-0.8 2-3.5 2.9-6 0.9-2.5 1.7-6.4 1.7-8.8 0-3.4-0.3-4.2-1.7-3.9-1.3 0.1-1.8-0.5-1.8-2.5 0-1.4-0.4-3-0.8-3.5-0.4-0.4-0.7-2.3-0.7-4 0-1.8 0.5-3.3 1-3.3 0.5 0 1-1.6 1-3.5 0-3 0.3-3.5 2.3-3.2 2 0.2 2.3 0.9 3.4 13.2l0.3-6.5c0.1-3.6 0.4-5.4 0.7-4 0.2 1.4 1.2 5.9 2.3 10 1 4.1 2.6 11.6 3.5 16.5 0.9 4.9 2.3 11.9 3.2 15.5 0.9 3.6 2.5 8.4 3.5 10.8 1 2.4 3.4 5.4 5.6 6.9 2 1.5 5.8 4.7 8.5 7 2.6 2.4 5 4.3 5.5 4.3 0.4 0.1 1.8-0.8 5.7-4l-2.5-2c-1.4-1.1-3.1-2-3.7-2-0.7 0-2.8-2.1-4.6-4.7-1.8-2.7-5.1-8-11.1-18.8l0.2-33.5c0.2-30.7 0.4-34 2.2-39.3 1.1-3.1 2-7 2-8.7 0-2.6 0.3-2.9 2.3-2.4 1.2 0.3 3.3 0.8 4.7 1.2 1.4 0.3 3.6 1.9 5 3.6 1.4 1.6 5.4 7.3 9.1 12.5 3.6 5.3 6.9 10.5 7.3 11.6 0.4 1.1 1.4 4.2 2.1 7 0.7 2.7 2.2 6.6 3.3 8.5 1.1 1.9 2.5 6.9 3.2 11 0.6 4.1 1.6 9.7 2.2 12.5 0.6 2.7 0.8 7.2 0.4 10-0.4 2.7-1.1 8.4-1.6 12.5-0.5 4.1-2.4 12.2-4.3 18-1.9 5.8-4.2 12.3-5.1 14.5-0.9 2.2-2.1 4.9-2.6 6-0.4 1.1-1.7 4-2.9 6.5-1.1 2.5-2.4 6.1-2.7 8-0.4 1.9-1.3 3.8-2.1 4.2-0.8 0.5-1.3 2.6-1.3 5.8 0 2.7 0.5 5.2 1 5.5 0.6 0.3 1 11.8 1 31.5 0 21.8-0.4 31.8-1.2 33.8-0.6 1.5-2.1 3.7-3.2 5-1.2 1.2-2.7 2.2-3.3 2.2-0.7 0-1.3 1.1-1.3 2.5 0 1.4-0.6 2.7-1.2 3-0.7 0.2-2 2.1-2.9 4.2-1 2.1-3.1 4.8-4.8 6.1-1.7 1.2-4.2 4.6-5.6 7.7-1.7 3.6-3.1 5.5-4.2 5.5-1.4 0-1.9 1.1-2.4 5.2-0.5 3.8-1.4 5.9-3 7.3-1.3 1.2-4.2 5.7-6.4 10-2.2 4.4-5.2 9.8-6.6 12-1.5 2.2-5.6 7-9.3 10.8-3.6 3.7-6.6 7-6.6 7.5 0 0.4-2.1 2.7-4.7 5.1-2.7 2.4-6.4 5-8.3 5.9-1.9 0.8-5.3 2.9-7.5 4.6-2.2 1.7-4.6 3.9-5.2 4.9-0.7 0.9-2.2 1.7-3.3 1.7-1.1 0-4.9 1.4-8.5 3-3.6 1.6-7 3-7.5 3-0.5 0-4.5 1.6-16.5 7.3l-50-1.4-12.2 6.6-2.9-2.3c-1.6-1.3-4.7-3.2-6.9-4.3-2.2-1.1-6-3.1-8.5-4.5-2.5-1.4-7.4-4.7-11-7.2-3.6-2.6-8.3-5.9-10.5-7.3-2.2-1.4-4.9-3.6-6-4.8-1.1-1.2-2.4-2.2-3-2.2-0.6 0.1-3.5-1.2-6.5-2.7-3-1.5-6-3.4-6.6-4.2-0.6-0.8-2.4-1.8-4-2.1-1.6-0.4-4.4-1.9-6.1-3.3-1.8-1.4-3.9-2.6-4.5-2.6-0.7 0.1-2.2-0.9-3.3-2-1.1-1.1-2.6-2.1-3.2-2-0.7 0-3.2-1.4-5.5-3-2.4-1.7-4.7-3-5.3-3-0.6 0-1.5-0.8-2.1-1.7-0.6-1-2.7-2.6-4.7-3.5-2-1-3.7-2.5-3.7-3.3 0-0.8-1.2-2.3-2.7-3.2-1.6-1-4.6-3.2-6.8-5-2.2-1.9-4.4-3.3-5-3.3-0.6 0-3.9-2.9-7.5-6.5-3.6-3.5-6.7-7-7-7.7-0.3-0.7-2.2-3.9-4.3-7-2-3.2-3.7-6.4-3.7-7 0-0.7-0.6-2.2-1.4-3.3-0.7-1.1-1.1-2.7-0.9-3.5 0.3-0.8-0.2-2.6-1-4-1-1.5-1.7-5.3-1.9-9.3-0.2-3.8-0.6-7.1-1-7.3-0.5-0.2-0.8-1.6-0.8-3.1 0-1.6-0.7-4.6-1.6-6.8-0.9-2.2-2-6.9-2.4-10.5-0.5-3.6-1.6-9.9-2.5-14-0.9-4.1-2.1-10-2.6-13-0.5-3-1.1-6.4-1.4-7.5-0.2-1.1-0.9-4.7-1.5-8-0.5-3.3-1.4-7.6-1.9-9.5-0.6-1.9-0.8-3.7-0.5-4 0.2-0.3 2.8 1.8 5.7 4.6 2.8 2.8 7.6 6.7 10.5 8.7 2.8 2 6 3.7 7 3.7 0.9 0 2.1 0.4 2.7 1 0.6 0.6 2.3 1 3.9 0.8 1.6-0.2 3.4-1.1 4-2 0.8-1.3 0.8-2.3-0.1-3.8-0.7-1.1-1.3-2.8-1.3-3.7 0-1-0.6-2.7-1.3-3.8-0.7-1.1-2.1-4.2-3.1-7-1-2.7-2.4-5.4-3.1-6-0.7-0.6-1.7-2.3-2.1-4-0.5-1.7-0.7-3.6-0.6-4.2 0.1-0.7-0.4-2.3-1.2-3.5-0.8-1.3-1.8-4.1-2.2-6.3-0.3-2.2-1.1-4.9-1.7-6-0.6-1.1-1.1-3.1-1.3-4.5-0.1-1.4-0.7-5.7-1.2-9.5-0.6-3.8-1.6-8.2-2.1-9.7-0.6-1.6-1.1-10.6-1.1-20.8 0-16.8 0.1-17.9 1.8-17.3 0.9 0.4 4.2 3.3 7.2 6.4 3 3.1 6.6 6 8 6.5 1.4 0.4 4.1 2.5 6 4.5 1.9 2.1 5.8 5.1 8.5 6.5 2.8 1.5 7.4 4 10.3 5.6 2.8 1.5 5.9 2.8 6.7 2.8 0.8 0 1.5 0.7 1.5 1.5 0 0.8 2.6 4.2 5.8 7.5 3.1 3.2 6.3 5.9 7 6 0.6 0 1.2 0.7 1.2 1.5 0 0.8 0.8 2.1 1.8 2.8 1 0.6 2.1 2 2.5 3 0.4 0.9 1.4 1.7 2.2 1.7 0.8 0 3.4 1.4 10 6.1l-12.2-0.1c-12.2 0-12.3 0-11.8 4.5h98l1-2.2c0.6-1.2 2.9-2.8 5.5-3.7 2.5-0.8 5.1-2.2 5.8-3.1 0.6-0.8 1-1.9 0.7-2.5-0.3-0.6-1.3-1-2.2-1-1 0-4 0.9-6.8 1.9-2.7 1.1-5.8 2.9-6.7 4-1.7 1.9-2.8 2.1-15.5 2.1-12.1 0-13.5-0.2-11.3-1.4 1.4-0.7 4.8-1.6 7.5-1.9 2.8-0.4 5.7-1.4 6.5-2.2 0.8-0.9 2.2-1.5 3-1.5 0.8 0 2-0.5 2.6-1.2 0.6-0.7 1.4-2.3 1.8-3.5 0.3-1.3 3.1-4.7 6.1-7.5 4.7-4.5 5.6-5.8 5.5-12.3l6.8 0.8c3.7 0.4 8.7 1.2 11.2 1.7 3.4 0.8 4.8 0.7 5.8-0.2 0.7-0.7 1.3-2.6 1.3-4.3 0-1.8-0.9-3.8-2.2-5-1.2-1.1-2.8-3.5-3.5-5.2-1-2.3-2.1-3.3-3.6-3.3-1.3 0-2.8-0.4-3.4-0.8-0.5-0.4-1.7-2.3-2.6-4.2-0.9-1.9-2.4-5.3-3.3-7.5-0.9-2.2-2.5-6.5-3.5-9.5-1-3-2.5-11.5-3.4-18.7-0.9-7.3-1.6-16.6-1.6-27.8l6.3 0.6c3.4 0.4 7.8 1.2 9.7 1.9 1.9 0.7 4.9 1.9 6.5 2.7 1.6 0.9 4.8 2.5 7 3.7 2.2 1.2 5.4 3.1 7 4.4 1.6 1.2 3.6 2.3 4.3 2.2 0.6 0 1.6 0.9 2.2 2 0.6 1.1 1.6 2 2.3 2 0.8 0 1.1 1.8 0.9 6.2-0.2 3.5 0.2 6.7 0.7 7.3q1 1 2.6-0.5c1-0.9 1.6-3.2 1.6-6 0.1-3.5 0.3-3.9 0.8-2 0.4 1.4 1.3 2.5 2 2.5 0.8 0 1.9-0.9 2.5-2 0.6-1 2.1-2.7 3.4-3.7 1.2-1 2.2-2.6 2.2-3.5 0-1 1-3.4 2.3-5.3 1.3-1.9 3.9-4.5 5.8-5.7 1.9-1.1 7.4-3.5 12.4-5.3 5-1.7 9.7-3.7 10.5-4.4 0.8-0.7 4.5-2.1 8.2-3.1 4.1-1.1 8.6-1.6 11.8-1.3 2.9 0.3 5.8 0.1 6.4-0.3 0.6-0.5 2.7-0.9 8.1-0.9z"/>
		<path id="Path 10" class="s5" d="m399.2 111.8c0.7 0.7 2.4 1.2 3.7 1.2 1.2 0 2.7 0.6 3.2 1.3 0.5 0.6 0.9 2.5 0.9 4.2 0 1.7 0.5 4.6 1.1 6.5 0.6 1.9 2 5.2 3 7.3 1 2 1.9 4.6 1.9 5.7 0 1.1 0.9 3.2 2.1 4.8 1.2 1.5 1.9 3.4 1.6 4.2-0.4 1.2-0.6 1.1-1.2-0.5-0.5-1.1-2.3-4-4-6.5-1.8-2.5-4.2-6.3-5.4-8.5-1.2-2.2-3.5-7.8-5.1-12.5-1.7-4.7-2.5-7.9-1.8-7.2zm-46.5 20.2c0.3 1.4 0.9 2.9 1.4 3.5 0.5 0.6 0.9 1.9 0.9 3 0 1.1 0.9 2.9 2 4 1.1 1.1 2.1 2.4 2 3 0 0.6 0.7 2.2 3 6.5h-4.5c-3.1 0-4.7-0.5-5-1.5-0.3-0.8-0.4-5.9-0.4-11.2 0.1-5.4 0.4-8.7 0.6-7.3zm243.8 7.1c2.7-0.1 3.1 0.3 4.3 3.9 0.6 2.2 1.2 5.3 1.2 7 0 1.7-0.5 3.2-1 3.5-0.5 0.3-1 2.6-1 5.3 0 2.6-0.3 10.1-0.8 16.7-0.5 7.3-1.5 13.5-2.5 15.8-0.9 2-2.2 3.7-2.7 3.7-0.5 0-1 1.1-1 2.5 0 1.4-0.7 2.7-1.5 3-0.8 0.3-1.5 1.2-1.5 2 0 0.8-0.3 1.6-0.8 1.8-0.4 0.1-2.3 2.3-4.2 4.8-1.9 2.6-5.2 5.9-7.3 7.3-2 1.4-4.8 2.6-6.2 2.6-1.4 0-2.7 0.4-3 1-0.3 0.6-1.4 1-2.5 1-2 0-2 0 0-2.7 1.2-1.6 2.1-4 2-5.5 0-1.6 0.5-3 1-3.3 0.5-0.3 1-1.5 1.1-2.7 0-1.3 0.3-7.7 0.5-14.3 0.4-10.9 0.2-12.4-1.8-16.5-1.2-2.5-3.4-5.8-4.9-7.5-1.4-1.7-4.1-3.3-6-3.7-1.9-0.4-4.1-1.4-4.9-2.3-0.8-0.9-2.1-1.6-2.7-1.5-0.7 0-1.3-0.2-1.3-0.5 0-0.3 1.9-3 4.3-6 2.3-3 4.8-5.5 5.5-5.5 0.6 0 2.9-0.9 4.9-2 2.1-1.1 4.7-2 5.8-2 1.1 0 3.7-0.6 5.8-1.5 2-0.8 5.2-1.5 7-1.5 1.8 0 3.7-0.4 4.2-0.9 0.6-0.5 2.4-1.1 4-1.4 1.6-0.2 4.4-0.5 6-0.6zm-237.3 17.9c5.5 0 5.9 0.2 7.7 3.3 1.1 1.7 5.8 6.8 19.1 19.2v10.3c0 8.8 0.3 11 2.5 15.7 1.4 3 2.8 5.7 3.3 5.9 0.4 0.2 2.2 3.3 4 7 1.7 3.6 4 7 5 7.6 1.4 0.8 1.3 0.9-1 1-1.6 0-5.1-1.2-7.9-2.7-2.8-1.6-9.3-7-14.5-12-5.2-5.1-9.8-9.3-10.4-9.3-0.5 0-1.2-0.7-1.5-1.5-0.4-1.2 0.3-1.5 3.3-1.5 2.2 0.1 4.3-0.6 5.2-1.6 1.3-1.4 1.3-1.7-0.1-2.8-0.8-0.6-1.8-1.9-2.2-2.8-0.4-1-2.5-3-4.7-4.5-2.1-1.6-3.9-3.4-4-4 0-0.7-0.9-2.5-2-4-1.2-1.6-3.1-6.2-4.5-10.3-1.3-4.1-2.5-8.7-2.7-10.2-0.5-2.8-0.4-2.8 5.4-2.8zm103.2 38.5l0.4 3.5c0.1 1.9 0.1 4.1-0.3 4.8-0.3 0.6-0.9 1.2-1.5 1.2-0.6 0-1-0.9-0.9-1.9 0.1-1.1 0.6-3.2 1.2-4.8z"/>
		<path id="Path 11" class="s2" d="m888.8 290.2c3-0.1 4.3 0.2 4.7 1.3 0.3 0.8 0.5 3.5 0.5 10.5h-5.7c-3.5-0.1-6.6-0.7-7.8-1.5-1.1-0.9-2.9-1.5-4-1.5-1.2 0-2.6 0.6-3.3 1.3-1 0.9-1.2 0.1-1.2-9.3l6.3-0.3c3.4-0.2 8.1-0.4 10.5-0.5z"/>
		<path id="Path 12" class="s3" d="m494 229.8l4.5 0.7 0.7 31c0.4 17.1 0.7 32.2 0.7 33.7 0.1 1.6 0.5 3 1.1 3.3 0.6 0.3 1 1.4 1 2.5 0 1.1 0.7 2.2 1.5 2.5 0.8 0.3 1.5 1.5 1.5 2.7 0 1.3 1.3 4.7 2.8 7.6 2 3.9 2.4 5.7 1.7 6.9-0.6 0.9-1.4 1.8-2 2-0.6 0.2-2.5-2.5-4.3-6.1-1.7-3.7-3.2-7.2-3.2-7.9 0.1-0.6-0.6-1.9-1.5-2.7-0.9-0.8-1.6-2.2-1.5-3 0-0.8-0.5-2.1-1.2-2.8-1-1-1.4-9.6-1.6-35.8zm-37.1 102.1h33.1c21 0 33.3 0.4 33.6 1 0.2 0.6-0.1 1.7-0.8 2.6-1.1 1.3-5.3 1.5-65.2 0.9l-0.4-2.2zm96.4 28c1.6 0 4.4 0.7 6.3 1.5 1.9 0.8 3.8 2.3 4.2 3.2 0.3 1 1.2 2.5 2 3.3 0.9 0.9 1.2 2.5 0.9 4.2-0.3 1.5-0.2 3 0.4 3.3 0.5 0.3 1 1.9 1 3.7 0.1 1.8-0.6 3.8-1.5 4.5-0.8 0.7-2 1.1-2.5 0.8-0.6-0.3-1-1.9-1-3.5 0-1.7-0.5-3.2-1-3.5-0.6-0.3-1-1.8-1-3.3 0.1-1.5-0.6-3.4-1.5-4.2-0.9-0.8-1.6-2.1-1.5-2.8 0-0.7-1.1-1.4-2.5-1.7-1.4-0.3-3.2-0.1-4 0.5-0.8 0.5-2.2 0.8-3 0.5-0.8-0.3-1.6-1.3-1.7-2.2-0.2-0.9 0.6-2.2 1.7-2.9 1.1-0.8 3.2-1.4 4.7-1.4zm-4.6 21c1.3 0 2.7 0.5 3 1.2 0.3 0.7-0.9 2.7-2.7 4.5-2.4 2.3-4.1 3.1-5.7 2.8-1.2-0.3-2.4-0.1-2.7 0.5-0.3 0.5-1.3 1-2.3 1-0.9-0.1-2.6 0.8-3.7 2-1.9 2-3 2-25.8 2-19.6 0-24.3 0.3-27.5 1.6-2 0.9-6 2.8-8.7 4.2-2.8 1.4-7.5 2.9-10.5 3.4-3 0.5-8 1-11 1.1-4.8 0.2-5.5-0.1-5.8-1.8-0.3-1.7 0.5-2.1 5-2.7 2.9-0.4 7.5-1.2 10.3-1.7 2.7-0.4 8.1-2.6 19-8.6l25.5-0.3c24-0.2 25.6-0.4 27.3-2.2 1-1.1 2.7-2 3.8-2 1 0 2.1-0.5 2.3-1 0.2-0.6 1.5-1 2.8-1 1.2 0.1 2.9-0.6 3.7-1.5 0.7-0.8 2.4-1.5 3.7-1.5zm-59.7 63c8.4 0 14.3 0.4 14.6 1 0.3 0.5-0.1 1.7-0.8 2.5-1 1.4-3.3 1.6-14.2 1.3-12.6-0.3-13-0.4-13.3-2.6-0.4-2.2-0.3-2.2 13.7-2.2z"/>
	</g>
</svg>